<svg version="1.1" id="Layer_1" xmlns="http://www.w3.org/2000/svg" xmlns:xlink="http://www.w3.org/1999/xlink" x="0px" y="0px"
	 width="100%" viewBox="0 0 3001 3001" enable-background="new 0 0 3001 3001" xml:space="preserve">
<path fill="#002B96" opacity="1.000000" stroke="none" 
	d="
M1982.000000,3004.000000 
	C1321.333496,3004.000000 661.666931,3004.000000 2.000266,3004.000000 
	C2.000177,2003.333618 2.000177,1002.667236 2.000088,2.000669 
	C1002.666199,2.000446 2003.332397,2.000446 3003.999023,2.000223 
	C3003.999268,1002.666016 3003.999268,2003.332031 3003.999512,3003.999023 
	C2663.666748,3004.000000 2323.333252,3004.000000 1982.000000,3004.000000 
M488.038361,1231.939209 
	C488.038361,1231.939209 487.898926,1231.952881 487.630188,1231.058350 
	C487.238159,1230.485718 486.696991,1230.235596 485.971649,1230.010132 
	C485.971649,1230.010132 485.673981,1230.047485 485.431274,1229.221802 
	C485.084625,1228.680908 484.591553,1228.441650 483.888611,1228.053223 
	C483.888611,1228.053223 483.434998,1228.093506 483.240692,1227.362915 
	C482.933716,1226.891724 482.500244,1226.682373 481.751526,1226.166992 
	C481.751526,1226.166992 481.160004,1226.075439 481.119568,1225.523682 
	C480.887543,1225.149170 480.564880,1225.038452 479.413055,1223.936157 
	C474.531219,1219.234985 469.649384,1214.533691 464.816925,1209.277832 
	C464.644714,1208.870117 464.340942,1208.706665 463.853058,1208.245728 
	C463.853058,1208.245728 463.327850,1208.103271 463.180481,1207.338257 
	C462.898560,1206.840210 462.471588,1206.579834 461.944733,1206.130859 
	C461.944733,1206.130859 461.518402,1206.089233 461.365875,1205.233154 
	C461.052643,1204.682373 460.580231,1204.380127 459.490417,1203.030762 
	C422.080841,1157.591431 403.125641,1104.849121 398.059631,1046.743774 
	C396.140717,1024.734253 380.564606,1010.376404 359.018799,1011.693359 
	C339.371674,1012.894287 325.257812,1029.670776 326.335938,1050.864990 
	C326.707428,1058.167480 327.388031,1065.484985 328.463593,1072.715942 
	C340.812531,1155.739868 374.220032,1227.881226 438.596069,1283.675415 
	C453.135468,1296.276611 468.685303,1307.707153 486.429504,1316.833618 
	C486.429504,1316.833618 487.028778,1317.288086 487.028778,1317.288086 
	C487.028778,1317.288086 487.780334,1317.253906 488.734863,1318.005493 
	C489.135437,1318.064941 489.536011,1318.124512 490.718567,1319.319580 
	C516.148987,1333.258667 543.362183,1342.599854 571.936584,1349.580688 
	C570.560547,1353.409302 569.554688,1356.169800 568.574951,1358.939453 
	C555.797119,1395.063232 545.469604,1431.845337 538.962891,1469.643921 
	C535.815186,1487.929443 545.907410,1504.728394 563.291992,1510.341675 
	C584.599487,1517.221558 605.050293,1503.758057 610.030762,1480.852661 
	C615.536804,1455.530396 621.880859,1430.370361 628.619507,1405.344238 
	C632.237549,1391.907593 637.449036,1378.899902 642.473022,1365.456909 
	C642.791016,1365.096313 642.780151,1364.746094 643.520630,1363.225586 
	C644.326538,1360.710571 645.132446,1358.195679 646.471924,1355.446167 
	C646.793091,1355.091064 646.787598,1354.741089 647.544800,1353.247070 
	C649.002869,1349.356201 650.460876,1345.465210 652.427612,1341.391846 
	C652.739502,1341.055420 652.720764,1340.738647 653.503845,1339.249390 
	C653.769958,1338.192749 654.036072,1337.136230 655.374390,1335.234375 
	C672.995850,1296.279297 694.062561,1259.351929 719.690796,1225.053589 
	C744.194763,1192.259888 772.780640,1163.652344 807.336121,1139.433594 
	C835.183167,1120.901733 865.293884,1108.125610 900.346069,1103.796631 
	C913.348755,1103.680664 926.351379,1103.564697 941.025696,1103.857544 
	C943.311218,1103.982178 945.596680,1104.106812 948.641907,1104.942261 
	C949.651123,1105.036499 950.660400,1105.130737 953.172791,1105.791992 
	C954.767212,1105.925415 956.361572,1106.058838 958.698730,1106.946533 
	C959.722168,1107.094849 960.745544,1107.243164 963.216309,1107.977661 
	C966.244141,1108.660400 969.271912,1109.343140 972.997437,1110.723633 
	C973.927246,1110.951660 974.857117,1111.179688 976.862122,1111.926514 
	C977.260010,1111.920410 977.657959,1111.914429 979.174561,1112.778320 
	C1027.216919,1130.206909 1065.823242,1161.003296 1100.790649,1197.581909 
	C1099.201660,1200.255005 1098.099609,1202.268311 1096.850830,1204.186279 
	C1069.898193,1245.581787 1047.973267,1289.621338 1028.759521,1335.017456 
	C1022.682373,1349.375854 1017.704834,1364.256348 1013.096863,1379.167725 
	C1004.657898,1406.475586 1000.464966,1434.642700 1004.777100,1462.958130 
	C1014.272644,1525.310791 1050.325195,1566.469604 1109.294189,1587.449707 
	C1128.813965,1594.394531 1149.260620,1597.469849 1171.853760,1594.346436 
	C1180.348999,1592.849243 1189.149658,1592.306152 1197.289795,1589.699585 
	C1250.132080,1572.779419 1287.922363,1540.245605 1302.760498,1485.063110 
	C1311.009033,1454.387207 1308.192017,1423.698120 1300.786011,1393.261475 
	C1289.807251,1348.142334 1269.283447,1307.227661 1244.992554,1268.044556 
	C1240.566895,1260.905640 1235.127319,1254.395386 1229.699951,1246.333374 
	C1229.349609,1246.055664 1228.999268,1245.777832 1228.734253,1244.769897 
	C1228.473999,1244.121704 1228.213745,1243.473511 1226.980469,1241.801270 
	C1215.776367,1225.949463 1204.572266,1210.097778 1192.932617,1193.629761 
	C1200.249390,1185.050659 1206.863037,1176.281982 1214.507935,1168.530396 
	C1234.086548,1148.678589 1254.124146,1129.279053 1275.228760,1109.289429 
	C1279.618408,1105.740356 1283.963135,1102.133911 1288.404785,1098.651123 
	C1328.133667,1067.498413 1371.124512,1042.133423 1418.904907,1025.314819 
	C1427.949463,1022.131226 1437.076538,1019.181824 1447.774292,1016.201355 
	C1473.269775,1009.920166 1499.067993,1005.173157 1525.355103,1004.983948 
	C1541.839844,1004.865234 1558.364258,1006.393188 1574.822510,1007.762207 
	C1585.937012,1008.686768 1596.967285,1010.621460 1608.800537,1012.792053 
	C1609.789795,1012.970642 1610.779053,1013.149231 1613.140869,1013.868469 
	C1614.119995,1013.933838 1615.099121,1013.999146 1617.263428,1014.920532 
	C1664.399536,1027.581909 1707.585571,1048.461670 1746.672119,1077.656494 
	C1763.384766,1090.139771 1779.662964,1103.204346 1796.711548,1117.195312 
	C1829.123047,1146.801880 1858.182007,1179.278687 1883.257812,1216.178955 
	C1879.283569,1219.228882 1876.296631,1221.278198 1873.585815,1223.644287 
	C1863.609619,1232.352173 1853.724854,1241.165161 1842.582642,1250.448853 
	C1823.264404,1269.032959 1806.899902,1289.839600 1795.178833,1314.062866 
	C1779.252563,1346.976562 1774.471924,1381.285889 1784.288574,1416.782227 
	C1794.338623,1453.122925 1815.287109,1481.060669 1851.202393,1498.402710 
	C1870.579224,1508.028442 1891.158691,1511.525635 1912.640015,1510.544556 
	C1923.464966,1510.050049 1934.209229,1509.227173 1945.809326,1504.472900 
	C1976.616943,1495.675171 1999.093018,1476.520874 2014.353882,1448.720825 
	C2029.191040,1421.692261 2030.231323,1392.733521 2024.874268,1363.230835 
	C2017.865845,1324.634521 2003.796265,1288.370850 1987.375854,1252.937622 
	C1985.750732,1249.430908 1984.213867,1245.883179 1982.833862,1242.797119 
	C1984.041504,1241.481323 1984.395874,1240.813843 1984.945312,1240.544067 
	C1987.633057,1239.224854 1990.337646,1237.927124 1993.099487,1236.773071 
	C2024.756958,1223.544922 2057.203125,1214.413208 2093.547607,1218.388062 
	C2101.046143,1219.915894 2108.609375,1221.180664 2116.032227,1223.014893 
	C2159.209717,1233.684937 2195.388672,1256.787720 2227.261475,1286.972290 
	C2240.037598,1299.071899 2251.541016,1312.515869 2263.869629,1326.610474 
	C2264.801025,1327.987793 2265.666016,1329.415894 2266.673340,1330.735352 
	C2299.149658,1373.275513 2322.924316,1420.336792 2339.630615,1471.074219 
	C2341.088379,1475.501953 2342.273438,1480.049072 2344.100586,1484.320312 
	C2350.852051,1500.103638 2367.732178,1508.865845 2384.133301,1505.335449 
	C2401.033691,1501.697388 2412.731201,1487.544800 2412.314209,1470.219360 
	C2412.173096,1464.343506 2410.746094,1458.342529 2408.979736,1452.688354 
	C2400.120605,1424.328003 2388.720215,1396.984619 2375.253174,1370.499634 
	C2373.685791,1367.417114 2372.312500,1364.235596 2370.645264,1360.662598 
	C2375.492432,1359.515503 2379.056152,1358.728760 2382.590088,1357.826416 
	C2405.194092,1352.055542 2427.483398,1345.412720 2449.456787,1333.844971 
	C2478.872559,1319.732910 2505.062256,1300.986816 2528.147461,1278.033813 
	C2571.578613,1234.851807 2598.867188,1182.577271 2613.845459,1123.583618 
	C2619.260498,1102.255005 2623.061768,1080.623291 2624.071045,1058.579224 
	C2624.627197,1046.429321 2620.293213,1036.278320 2610.805420,1028.742432 
	C2600.042725,1020.193665 2587.908691,1018.285217 2575.110596,1023.523315 
	C2561.120850,1029.249023 2554.125732,1040.273438 2552.357178,1055.009155 
	C2551.009766,1066.235107 2550.120850,1077.562866 2547.958252,1088.636353 
	C2538.250000,1138.340332 2518.471191,1183.407715 2483.383301,1220.531494 
	C2471.345459,1233.267456 2456.961182,1243.785522 2442.722900,1255.694580 
	C2442.473145,1255.915405 2442.223633,1256.136353 2441.018799,1256.539185 
	C2440.412842,1256.847778 2439.979736,1257.316406 2438.385498,1258.284912 
	C2411.132812,1275.018188 2381.686035,1285.964355 2350.208008,1291.383789 
	C2343.360840,1292.562744 2335.590820,1295.100342 2329.676025,1292.994751 
	C2324.267334,1291.069336 2320.790771,1283.710571 2316.472656,1278.737305 
	C2315.818848,1277.984253 2315.233398,1277.171875 2314.592041,1276.407227 
	C2298.545654,1257.278564 2282.004150,1238.635498 2261.547363,1222.088745 
	C2253.083496,1215.762207 2244.787354,1209.194458 2236.114258,1203.169067 
	C2224.808105,1195.314453 2213.529053,1187.330811 2201.650879,1180.411255 
	C2183.775635,1169.998413 2164.612549,1162.237793 2144.742920,1156.494873 
	C2124.916260,1150.764526 2104.837646,1146.100586 2082.201172,1145.845337 
	C2076.137695,1145.967773 2070.073975,1146.090210 2062.350830,1145.961792 
	C2058.025391,1146.580688 2053.699707,1147.199585 2047.708252,1147.653198 
	C2044.094727,1148.132202 2040.452881,1148.456177 2036.872314,1149.114502 
	C2007.999268,1154.421997 1980.414917,1163.787598 1953.810913,1176.048706 
	C1948.882324,1178.319946 1944.623169,1179.289429 1940.372681,1173.970337 
	C1938.697754,1171.132202 1937.226685,1168.148315 1935.317139,1165.478027 
	C1906.120361,1124.649780 1872.503906,1087.814209 1834.502686,1055.053101 
	C1823.446533,1045.521484 1811.558228,1036.955200 1800.010620,1027.996948 
	C1800.010620,1027.996948 1800.060059,1027.961426 1799.664185,1027.072510 
	C1799.230103,1026.517212 1798.660767,1026.251221 1797.108032,1025.197388 
	C1790.973022,1021.323486 1784.724976,1017.615479 1778.730469,1013.535156 
	C1770.554199,1007.969910 1762.849243,1001.670898 1754.451172,996.481323 
	C1732.892212,983.159119 1710.278564,971.799133 1686.664429,962.589844 
	C1664.355957,953.889709 1641.758179,946.006897 1616.998657,941.927917 
	C1616.658813,941.958191 1616.318970,941.988464 1614.728516,941.237732 
	C1611.800171,940.848145 1608.871704,940.458496 1604.346191,939.648254 
	C1600.689453,939.156921 1597.032593,938.665588 1592.196899,937.286499 
	C1588.099854,936.895264 1584.002930,936.503967 1579.049683,935.852173 
	C1579.049683,935.852173 1578.163086,935.972839 1576.650635,935.309204 
	C1557.110474,933.314331 1537.564209,931.593689 1516.107178,933.816956 
	C1489.819458,934.825989 1463.867432,938.111572 1437.322021,945.248596 
	C1436.220703,945.607788 1435.119263,945.967041 1432.731079,946.187439 
	C1431.587280,946.719238 1430.443481,947.251038 1428.160034,947.692200 
	C1427.440796,947.928467 1426.721680,948.164734 1424.783081,948.275574 
	C1423.708862,948.799622 1422.634644,949.323608 1420.014648,949.846375 
	C1382.411377,960.193481 1346.879639,975.568665 1313.257935,995.153137 
	C1296.999023,1004.623840 1281.634766,1015.630554 1264.560791,1026.311401 
	C1219.604858,1058.193481 1180.286377,1096.143555 1144.869751,1138.430298 
	C1142.904541,1137.403442 1141.476318,1136.657227 1139.521729,1134.691406 
	C1134.885986,1130.476807 1130.250122,1126.262329 1125.365479,1121.245972 
	C1125.031128,1120.727417 1124.555542,1120.474365 1123.889893,1120.071167 
	C1123.889893,1120.071167 1123.471802,1120.090454 1123.310059,1119.410156 
	C1123.029053,1118.967773 1122.628052,1118.775024 1121.304199,1117.666992 
	C1094.677124,1093.709961 1065.681763,1073.213989 1033.270996,1057.780029 
	C1015.540222,1049.336792 997.402039,1041.967041 976.960022,1037.928711 
	C976.598694,1037.963867 976.237427,1037.999023 974.732849,1037.258789 
	C972.480286,1036.916992 970.227661,1036.575195 967.062500,1035.821655 
	C966.732239,1035.869263 966.401917,1035.916992 964.812744,1035.174561 
	C961.862427,1034.837524 958.912048,1034.500488 955.046509,1033.784546 
	C955.046509,1033.784546 954.073120,1033.968140 952.682190,1033.243652 
	C948.363892,1032.776855 944.045593,1032.310181 938.243713,1031.263184 
	C925.567444,1031.437988 912.891235,1031.612793 898.434692,1031.842285 
	C885.419495,1033.941162 872.205078,1035.219360 859.433044,1038.319824 
	C836.981750,1043.770142 815.261353,1051.481934 794.090576,1063.990112 
	C786.651001,1068.371460 779.035645,1072.481934 771.800842,1077.178711 
	C729.443665,1104.675781 694.506409,1140.003662 664.141907,1180.047852 
	C657.744629,1188.484497 652.052307,1197.455688 644.940918,1206.939453 
	C630.047180,1231.602417 615.153503,1256.265259 599.880188,1281.556885 
	C599.907410,1281.556885 598.910278,1281.709351 597.974121,1281.534912 
	C561.214111,1274.686035 527.372192,1261.000366 497.274261,1238.533569 
	C495.701050,1237.359375 493.906982,1236.481079 491.889069,1234.586914 
	C491.446869,1234.078857 490.889282,1233.838013 489.871796,1232.891846 
	C489.267365,1232.620483 488.662933,1232.349121 488.038361,1231.939209 
M1585.667603,455.382507 
	C1545.248535,444.196716 1504.724121,443.930237 1464.350464,455.162872 
	C1338.224365,490.253357 1266.206299,623.541504 1305.398926,748.954346 
	C1342.609619,868.024414 1465.087158,936.176453 1584.069946,904.019226 
	C1694.239380,874.243896 1766.602905,764.995056 1752.762695,651.668701 
	C1741.613770,560.378906 1676.600830,481.176178 1585.667603,455.382507 
M700.251221,711.260010 
	C661.605652,760.571228 649.732178,815.691467 667.205750,875.834167 
	C691.986816,961.128540 776.200256,1014.814697 865.204895,1004.549927 
	C961.963623,993.390747 1040.965332,903.969788 1024.251831,796.427490 
	C1011.923950,717.103455 944.153503,649.135010 854.094910,644.282959 
	C792.639404,640.971985 741.523438,663.565674 700.251221,711.260010 
M1998.481934,2035.857544 
	C2001.664062,2035.688477 2004.846313,2035.519287 2008.603516,2035.319580 
	C2009.339478,2026.639038 2009.983521,2018.700439 2010.693115,2010.767700 
	C2011.435181,2002.473633 2012.339844,1994.192871 2012.989136,1985.891968 
	C2013.612427,1977.923340 2014.022827,1969.937622 2014.484375,1961.957031 
	C2014.965210,1953.643188 2015.496582,1945.330322 2015.818848,1937.009766 
	C2016.128174,1929.019531 2016.135376,1921.018066 2016.390137,1913.025269 
	C2016.655640,1904.701904 2017.149414,1896.385498 2017.375366,1888.061523 
	C2017.592285,1880.069092 2017.612793,1872.071045 2017.684570,1864.075195 
	C2017.759277,1855.744629 2017.576050,1847.405151 2017.906494,1839.085571 
	C2018.208984,1831.467651 2016.493164,1823.633667 2020.239990,1816.048706 
	C2026.955322,1834.051270 2030.932251,1852.712769 2036.360229,1870.939575 
	C2041.868408,1889.434937 2047.150757,1908.008301 2053.176514,1926.335571 
	C2059.306885,1944.980713 2066.150635,1963.393433 2072.815674,1981.859863 
	C2079.326660,1999.899780 2086.006592,2017.878906 2092.494385,2035.563965 
	C2126.949707,2035.563965 2160.238037,2035.563965 2194.679443,2035.563965 
	C2203.057617,1939.045654 2211.418945,1842.719116 2219.816895,1745.970825 
	C2195.168945,1745.970825 2171.671631,1745.970825 2147.489746,1745.970825 
	C2145.585693,1769.681641 2143.348145,1792.879395 2141.960205,1816.127808 
	C2140.551025,1839.731323 2139.625732,1863.377930 2139.144775,1887.018921 
	C2138.677490,1909.979736 2139.043213,1932.957520 2139.043213,1955.927734 
	C2138.286133,1956.024170 2137.529053,1956.120483 2136.771973,1956.216919 
	C2130.355225,1932.439819 2124.695312,1908.424438 2117.309570,1884.952271 
	C2109.827881,1861.175415 2101.009766,1837.793823 2092.093506,1814.500610 
	C2083.210693,1791.294189 2073.479248,1768.412231 2064.311035,1745.858154 
	C2029.466797,1745.858154 1995.878418,1745.858154 1961.381592,1745.858154 
	C1953.001343,1842.519653 1944.652466,1938.819092 1936.239624,2035.857666 
	C1957.334717,2035.857666 1976.958008,2035.857666 1998.481934,2035.857544 
M2280.592041,846.338684 
	C2251.249268,831.669556 2220.479736,825.862793 2187.650391,829.582886 
	C2108.506836,838.551331 2035.987305,911.396240 2048.715576,1009.260254 
	C2060.872559,1102.733887 2149.648682,1163.967285 2241.690918,1143.982910 
	C2314.585938,1128.155762 2376.319580,1058.715210 2365.254883,968.201965 
	C2358.635986,914.056946 2329.561523,873.762756 2280.592041,846.338684 
M1434.327148,1913.261719 
	C1430.895264,1953.877319 1427.463379,1994.492798 1424.008057,2035.384521 
	C1451.653809,2035.384521 1477.842773,2035.384521 1504.833008,2035.384521 
	C1507.309326,2007.962036 1509.751221,1980.919434 1512.164185,1954.197510 
	C1523.991089,1954.197510 1534.827759,1954.197510 1545.749512,1954.197510 
	C1557.530396,1981.734863 1569.032593,2008.620483 1580.487427,2035.395752 
	C1611.899292,2035.395752 1642.777344,2035.395752 1675.236816,2035.395752 
	C1673.559204,2030.919434 1672.615234,2027.160034 1670.835449,2023.850098 
	C1658.223022,2000.397217 1645.429810,1977.041748 1632.717773,1953.642456 
	C1629.728516,1948.139893 1626.828735,1942.588745 1624.075073,1937.411865 
	C1631.746338,1930.610229 1639.542847,1924.783081 1646.033936,1917.750977 
	C1671.746948,1889.894897 1680.890381,1856.316650 1678.313965,1819.158447 
	C1676.052490,1786.543213 1659.340332,1764.604858 1628.504028,1753.523682 
	C1613.940674,1748.290405 1598.860840,1745.798462 1583.451782,1745.718140 
	C1540.806396,1745.495850 1498.159790,1745.494873 1455.513672,1745.448608 
	C1453.588989,1745.446533 1451.663818,1745.857422 1449.584839,1746.093506 
	C1449.162231,1747.665527 1448.626709,1748.904297 1448.516113,1750.180176 
	C1446.329590,1775.395264 1444.226929,1800.617798 1442.036011,1825.832397 
	C1439.556885,1854.364136 1437.007812,1882.889771 1434.327148,1913.261719 
M806.333740,1763.299194 
	C782.432068,1779.142822 766.287476,1801.222656 756.236206,1827.654175 
	C740.041809,1870.239746 735.935852,1914.472656 742.594910,1959.294800 
	C748.822754,2001.214478 773.226685,2027.627319 815.164001,2036.765869 
	C837.444458,2041.621094 859.922241,2042.665039 882.662903,2040.417114 
	C941.317688,2034.619141 981.909851,2004.882568 1002.667236,1949.529907 
	C1018.048706,1908.513184 1021.664917,1865.867920 1015.555847,1822.697021 
	C1009.399170,1779.189575 983.687195,1752.988403 940.775085,1743.806641 
	C919.059631,1739.160278 897.111206,1738.632568 875.174316,1740.473755 
	C851.028381,1742.500488 828.106750,1749.095093 806.333740,1763.299194 
M2420.307861,2042.638184 
	C2434.511475,2041.077393 2448.958984,2040.673950 2462.874512,2037.744385 
	C2509.393555,2027.950684 2538.522217,1999.561646 2549.949219,1953.277710 
	C2554.443115,1935.076904 2556.279053,1916.567261 2556.183105,1897.843750 
	C2556.153076,1891.954834 2556.178467,1886.065796 2556.178467,1880.153564 
	C2514.011475,1880.153564 2473.240967,1880.153564 2432.177002,1880.153564 
	C2430.598389,1898.950073 2429.079102,1917.035767 2427.425781,1936.719238 
	C2444.267578,1935.166992 2459.651367,1933.749023 2476.604248,1932.186523 
	C2474.482910,1947.051147 2472.447021,1961.318848 2470.396484,1975.689331 
	C2451.763428,1979.229370 2434.111328,1980.111328 2416.650879,1977.292114 
	C2397.115723,1974.137939 2384.323486,1962.374634 2379.538086,1942.852173 
	C2377.961426,1936.421265 2376.577148,1929.799927 2376.306641,1923.216187 
	C2374.960693,1890.412598 2378.041016,1857.988159 2386.735840,1826.283447 
	C2389.780029,1815.182983 2386.806641,1814.872925 2401.995850,1813.824829 
	C2404.651123,1813.641724 2407.286377,1813.054443 2409.939941,1812.980591 
	C2424.572510,1812.573486 2439.237793,1811.525635 2453.834961,1812.113281 
	C2472.474365,1812.863647 2480.013184,1821.448486 2480.309082,1839.989624 
	C2480.370361,1843.842285 2480.317871,1847.696899 2480.317871,1851.425781 
	C2506.470215,1851.425781 2531.293457,1851.425781 2556.325195,1851.425781 
	C2556.807617,1848.958130 2557.467773,1847.030029 2557.516357,1845.086548 
	C2557.740967,1836.101929 2558.261963,1827.090820 2557.830078,1818.129883 
	C2555.936279,1778.843872 2535.488525,1753.609985 2497.385986,1743.589722 
	C2473.249023,1737.242310 2448.729004,1736.789917 2424.025635,1739.626343 
	C2366.141113,1746.273071 2326.626465,1776.382568 2307.455322,1831.677246 
	C2293.125488,1873.008057 2289.837646,1915.752686 2296.393066,1958.799927 
	C2302.644043,1999.844849 2326.011475,2027.054077 2366.964844,2037.715820 
	C2383.842773,2042.110107 2401.093506,2043.186646 2420.307861,2042.638184 
M609.377197,1743.576172 
	C584.843933,1737.494019 559.945984,1737.063477 534.931885,1738.969116 
	C517.935608,1740.264038 501.275269,1743.255737 485.394043,1749.784668 
	C462.757416,1759.090698 445.994232,1774.325439 437.241730,1797.564697 
	C430.419006,1815.679810 428.694550,1834.516235 430.610260,1853.614868 
	C432.711304,1874.560913 443.099213,1890.708374 461.269348,1901.284424 
	C469.849854,1906.278931 478.895172,1910.815918 488.249725,1914.062256 
	C503.621552,1919.396484 519.549805,1923.113403 534.985413,1928.282715 
	C545.012024,1931.640625 554.889404,1935.773438 564.262024,1940.656250 
	C572.619141,1945.010010 576.138672,1953.036255 575.582886,1962.463257 
	C575.313171,1967.037720 574.372986,1971.572510 573.681519,1976.517578 
	C567.463867,1977.429321 561.897827,1978.913086 556.327637,1978.928955 
	C543.060852,1978.967041 529.678833,1979.247803 516.557373,1977.660889 
	C504.470825,1976.199219 498.838776,1968.854614 497.507568,1956.695801 
	C497.051117,1952.526733 497.040253,1948.308838 496.838470,1944.361206 
	C469.638916,1944.361206 443.140533,1944.361206 416.049622,1944.361206 
	C416.049622,1957.005371 415.022766,1969.040771 416.272766,1980.834839 
	C418.565796,2002.470459 429.445953,2019.141968 449.420258,2028.645142 
	C457.757324,2032.611816 466.685364,2035.800537 475.686279,2037.821289 
	C503.573639,2044.082520 531.905090,2043.897339 560.177979,2041.351929 
	C575.781799,2039.947266 591.054504,2036.388916 605.481201,2029.902222 
	C626.777710,2020.326416 642.461182,2005.318726 650.740479,1983.147583 
	C657.391113,1965.337646 659.242615,1946.859009 657.461731,1928.095459 
	C655.769470,1910.265747 647.455872,1895.716553 632.895935,1885.243042 
	C625.910217,1880.217773 618.576965,1875.179565 610.648010,1872.063843 
	C593.662170,1865.389160 576.196655,1859.931396 558.908325,1854.031860 
	C547.908630,1850.278198 536.524231,1847.417114 525.941772,1842.733521 
	C511.787781,1836.469482 508.064514,1828.125488 510.625275,1812.905884 
	C511.216125,1809.394287 512.258118,1805.958496 513.009216,1802.834351 
	C528.795532,1799.494995 543.724609,1798.607910 558.720581,1800.028931 
	C571.819031,1801.270142 577.727234,1807.208130 579.224976,1820.245605 
	C579.710327,1824.469971 579.301208,1828.797119 579.301208,1833.547119 
	C606.418457,1833.547119 632.950806,1833.547119 660.037048,1833.547119 
	C662.509033,1821.969238 662.459595,1810.371704 661.149109,1798.808105 
	C658.042053,1771.390381 642.920898,1753.835083 616.686951,1745.674805 
	C614.783630,1745.082886 612.877441,1744.500122 609.377197,1743.576172 
M1221.000366,1745.417847 
	C1204.097290,1745.417847 1187.194092,1745.417847 1170.091431,1745.417847 
	C1136.800659,1842.392456 1103.805786,1938.505493 1070.539307,2035.409424 
	C1099.204224,2035.409424 1126.349243,2035.409424 1153.857422,2035.409424 
	C1159.272339,2017.767944 1164.596558,2000.421753 1170.027954,1982.726807 
	C1199.077759,1988.392334 1227.121582,1987.408447 1255.576660,1983.090332 
	C1257.824951,2001.094604 1259.955078,2018.151367 1262.110962,2035.415527 
	C1291.084351,2035.415527 1319.279907,2035.415527 1348.746338,2035.415527 
	C1332.284424,1938.572876 1315.930786,1842.367310 1299.450806,1745.417847 
	C1273.501953,1745.417847 1248.251221,1745.417847 1221.000366,1745.417847 
M1015.943359,2170.938477 
	C1010.745178,2177.417480 1004.975891,2183.523926 1000.458557,2190.447021 
	C988.167297,2209.283691 982.604248,2230.425537 980.977844,2252.657715 
	C978.931274,2280.633789 982.006165,2307.895752 993.917603,2333.606934 
	C1006.689941,2361.176514 1027.929565,2379.188477 1057.062988,2387.709717 
	C1075.251221,2393.029297 1093.942993,2393.495361 1112.526123,2391.099365 
	C1121.281128,2389.970459 1129.900513,2386.807373 1138.226196,2383.633789 
	C1145.244263,2380.959229 1150.433594,2376.029053 1152.389282,2368.033203 
	C1153.593384,2363.110596 1156.237793,2358.540283 1158.235596,2353.811768 
	C1158.757812,2353.978760 1159.280029,2354.145752 1159.802246,2354.312500 
	C1161.740845,2365.288330 1163.679443,2376.264160 1165.653687,2387.441895 
	C1174.755371,2387.441895 1182.737305,2387.462891 1190.719116,2387.435547 
	C1198.898804,2387.407471 1207.078369,2387.332031 1215.096069,2387.278320 
	C1216.948730,2362.878906 1216.139404,2263.665283 1214.212769,2256.659668 
	C1178.677246,2256.659668 1143.206665,2256.659668 1106.963867,2256.659668 
	C1106.963867,2265.253418 1106.945435,2273.205322 1106.968994,2281.156982 
	C1106.993042,2289.303467 1107.058350,2297.449951 1107.109009,2306.188965 
	C1123.470337,2306.188965 1138.350220,2306.188965 1153.122192,2306.188965 
	C1153.315674,2307.461426 1153.657104,2308.181641 1153.474854,2308.726318 
	C1142.491211,2341.571777 1115.746948,2349.821289 1088.666992,2342.625977 
	C1070.232178,2337.727295 1060.024658,2323.972900 1054.176880,2306.755615 
	C1047.079102,2285.858154 1046.421875,2264.309082 1049.124878,2242.594482 
	C1050.577515,2230.924316 1053.939697,2219.803711 1060.073486,2209.674561 
	C1072.857178,2188.563721 1095.372925,2179.440674 1119.362305,2185.236816 
	C1133.409058,2188.631104 1143.047363,2196.907227 1148.332031,2210.220947 
	C1150.269775,2215.102539 1151.648926,2220.206055 1153.314941,2225.306641 
	C1174.484253,2225.306641 1195.577637,2225.306641 1217.109253,2225.306641 
	C1213.525269,2187.445557 1195.306152,2161.002930 1160.866211,2146.182129 
	C1147.578003,2140.463623 1133.502686,2137.785400 1119.168091,2136.796631 
	C1080.698975,2134.143066 1045.773438,2142.719727 1015.943359,2170.938477 
M2019.694702,2325.000000 
	C2019.694702,2264.114014 2019.694702,2203.228027 2019.694702,2142.086426 
	C1997.702759,2142.086426 1976.569458,2142.086426 1954.405762,2142.086426 
	C1954.405762,2175.564209 1954.405762,2208.358154 1954.405762,2241.220703 
	C1921.536743,2241.220703 1889.711304,2241.220703 1856.875732,2241.220703 
	C1856.875732,2207.824219 1856.875732,2175.008301 1856.875732,2141.945068 
	C1835.020142,2141.945068 1814.184448,2141.945068 1793.301758,2141.945068 
	C1793.301758,2223.904785 1793.301758,2305.310791 1793.301758,2386.625000 
	C1807.805054,2388.330811 1849.386108,2387.794434 1857.375977,2385.615234 
	C1857.375977,2354.805420 1857.375977,2323.686768 1857.375977,2292.382812 
	C1890.293213,2292.382812 1922.129883,2292.382812 1954.762085,2292.382812 
	C1955.341064,2324.239746 1954.488525,2355.654053 1955.233887,2387.455566 
	C1967.017578,2387.455566 1977.329102,2387.500732 1987.639893,2387.442627 
	C1998.165894,2387.383545 2008.715942,2387.719727 2019.694702,2387.180908 
	C2019.694702,2366.266602 2019.694702,2346.633301 2019.694702,2325.000000 
M2497.709229,2387.433105 
	C2517.225098,2387.433105 2536.740967,2387.433105 2556.662598,2387.433105 
	C2556.319092,2385.496094 2556.400391,2384.421631 2555.952637,2383.657227 
	C2547.562988,2369.338867 2543.570801,2353.625244 2541.012695,2337.418945 
	C2539.458496,2327.571045 2538.191895,2317.634766 2535.865234,2307.962158 
	C2532.015625,2291.958496 2522.927246,2279.690918 2507.866211,2272.267334 
	C2506.533203,2271.610352 2505.441895,2270.463135 2503.810059,2269.216064 
	C2507.386475,2267.821533 2510.216553,2266.850830 2512.937256,2265.635254 
	C2528.742676,2258.573975 2541.559570,2248.227051 2546.959473,2231.192871 
	C2556.009521,2202.645752 2551.577393,2161.895264 2505.783203,2147.741455 
	C2490.975586,2143.164795 2475.793701,2141.744873 2460.437744,2141.672119 
	C2425.469482,2141.506104 2390.500732,2141.487793 2355.531982,2141.435303 
	C2353.283447,2141.431885 2351.034424,2141.649902 2348.406494,2141.784424 
	C2348.406494,2223.737549 2348.406494,2305.116699 2348.406494,2386.827148 
	C2369.791260,2386.827148 2390.587402,2386.827148 2412.369141,2386.827148 
	C2412.369141,2355.763916 2412.369141,2325.289795 2412.369141,2294.318848 
	C2424.604736,2294.318848 2435.874512,2293.932129 2447.102783,2294.452881 
	C2454.772461,2294.808838 2461.337158,2298.692627 2465.370850,2305.235840 
	C2468.819092,2310.829834 2471.857910,2316.930908 2473.668945,2323.213623 
	C2475.865479,2330.833984 2476.586670,2338.880371 2477.937988,2346.743652 
	C2480.302002,2360.498535 2483.226318,2374.099365 2488.636475,2387.432861 
	C2491.270752,2387.432861 2493.585449,2387.432861 2497.709229,2387.433105 
M917.128174,2213.901855 
	C903.390503,2175.035400 876.217773,2150.790527 836.512573,2140.687988 
	C816.292664,2135.542969 795.676819,2134.762695 775.024170,2138.051270 
	C728.211548,2145.504883 695.298767,2170.364502 680.399597,2216.083496 
	C670.462891,2246.575195 670.313049,2277.843018 679.260498,2308.637207 
	C691.659241,2351.309082 720.083862,2377.753906 763.257080,2388.249268 
	C784.611816,2393.440674 806.234741,2393.863281 827.708740,2389.772461 
	C873.522949,2381.044189 904.805603,2355.103271 918.407349,2309.876953 
	C927.858215,2278.452393 927.003113,2246.815674 917.128174,2213.901855 
M1448.685181,2289.076416 
	C1453.849976,2289.009277 1459.014893,2288.942383 1464.103638,2288.876221 
	C1464.103638,2271.624512 1464.103638,2255.760010 1464.103638,2238.893555 
	C1426.447266,2238.893555 1389.305786,2238.893555 1351.615234,2238.893555 
	C1351.615234,2222.782715 1351.615234,2207.683838 1351.615234,2191.853760 
	C1391.897583,2191.271240 1431.671387,2192.174072 1471.450195,2191.347412 
	C1471.450195,2174.143066 1471.450195,2158.231934 1471.450195,2141.903809 
	C1409.863647,2141.903809 1348.682983,2141.903809 1287.266235,2141.903809 
	C1287.266235,2223.816162 1287.266235,2305.222656 1287.266235,2386.863281 
	C1350.106689,2386.863281 1412.243896,2386.863281 1474.730713,2386.863281 
	C1474.730713,2370.211426 1474.730713,2354.154785 1474.730713,2337.322510 
	C1433.494141,2337.322510 1392.953369,2337.322510 1351.734863,2337.322510 
	C1351.734863,2321.105225 1351.734863,2305.665039 1351.734863,2289.076172 
	C1383.665771,2289.076172 1415.216187,2289.076172 1448.685181,2289.076416 
M2185.000244,2141.414551 
	C2154.810547,2141.414551 2124.621094,2141.414551 2094.346680,2141.414551 
	C2094.346680,2223.925781 2094.346680,2305.308594 2094.346680,2386.822266 
	C2157.164307,2386.822266 2219.286377,2386.822266 2281.469971,2386.822266 
	C2281.469971,2370.075195 2281.469971,2353.954346 2281.469971,2337.414551 
	C2267.119385,2337.414551 2253.476807,2337.414551 2239.834229,2337.414551 
	C2226.176514,2337.414551 2212.518311,2337.464844 2198.860840,2337.400635 
	C2185.384521,2337.337158 2171.885742,2337.698730 2158.537354,2337.141602 
	C2158.537354,2320.483398 2158.537354,2305.266357 2158.537354,2289.186279 
	C2196.434082,2288.809570 2233.850586,2289.339600 2271.078125,2288.899170 
	C2271.078125,2271.594727 2271.078125,2255.763428 2271.078125,2238.955566 
	C2233.329834,2238.955566 2196.170166,2238.955566 2158.554443,2238.955566 
	C2158.554443,2222.833252 2158.554443,2207.703369 2158.554443,2191.742920 
	C2198.585938,2191.742920 2238.091064,2191.742920 2278.103516,2191.742920 
	C2278.103516,2174.716309 2278.103516,2158.518066 2278.103516,2141.414551 
	C2247.517822,2141.414551 2217.259033,2141.414551 2185.000244,2141.414551 
M559.439392,2327.000244 
	C559.439392,2282.156006 559.439392,2237.311523 559.439392,2191.534180 
	C586.408020,2191.534180 612.214905,2191.534180 638.465088,2191.534180 
	C638.465088,2174.469482 638.465088,2158.350342 638.465088,2142.027832 
	C563.782471,2142.027832 489.687408,2142.027832 415.672791,2142.027832 
	C415.672791,2158.831543 415.672791,2174.992432 415.672791,2192.030518 
	C442.227631,2192.030518 468.071289,2192.030518 494.779236,2192.030518 
	C494.779236,2257.397705 494.779236,2321.870850 494.779236,2386.173340 
	C506.181763,2388.219971 551.751099,2387.873047 559.439392,2385.670898 
	C559.439392,2366.906982 559.439392,2347.953857 559.439392,2327.000244 
M1597.378174,2250.998535 
	C1597.378174,2296.240967 1597.378174,2341.483643 1597.378174,2386.740234 
	C1619.353271,2386.740234 1640.166504,2386.740234 1661.679932,2386.740234 
	C1661.679932,2353.766846 1661.679932,2321.486328 1661.679932,2289.205811 
	C1661.679932,2256.978760 1661.679932,2224.751953 1661.679932,2191.664551 
	C1671.270386,2191.664551 1679.854614,2191.664551 1688.438843,2191.664551 
	C1697.437988,2191.664551 1706.444214,2191.884033 1715.434448,2191.601074 
	C1723.914673,2191.334473 1732.534424,2192.894043 1740.865479,2190.593994 
	C1740.865479,2174.097168 1740.865479,2158.221924 1740.865479,2142.444824 
	C1728.656372,2140.549072 1525.015625,2141.072266 1517.652832,2143.049316 
	C1517.652832,2150.893555 1517.433228,2158.871582 1517.713867,2166.832031 
	C1518.000732,2174.966553 1516.465942,2183.246826 1519.020020,2192.131836 
	C1545.199951,2192.131836 1571.039062,2192.131836 1597.378174,2192.131836 
	C1597.378174,2211.700684 1597.378174,2230.349365 1597.378174,2250.998535 
M1762.097412,1958.952148 
	C1759.954102,1984.332397 1757.810913,2009.712646 1755.661621,2035.163574 
	C1783.564697,2035.163574 1810.017944,2035.163574 1837.045776,2035.163574 
	C1845.428223,1938.479736 1853.755249,1842.434570 1862.077393,1746.444824 
	C1846.954102,1744.401001 1787.524902,1745.026245 1780.557861,1747.192749 
	C1774.442749,1817.111572 1768.321045,1887.106567 1762.097412,1958.952148 
z"/>
<path fill="#96E9FE" opacity="1.000000" stroke="none" 
	d="
M1586.448853,455.599976 
	C1676.600830,481.176178 1741.613770,560.378906 1752.762695,651.668701 
	C1766.602905,764.995056 1694.239380,874.243896 1584.069946,904.019226 
	C1465.087158,936.176453 1342.609619,868.024414 1305.398926,748.954346 
	C1266.206299,623.541504 1338.224365,490.253357 1464.350464,455.162872 
	C1504.724121,443.930237 1545.248535,444.196716 1586.448853,455.599976 
M1443.715088,819.426819 
	C1486.421143,844.778931 1531.431885,849.907593 1578.026367,832.675842 
	C1686.927124,792.401855 1718.232910,647.951233 1636.155518,564.403259 
	C1597.808594,525.369202 1550.999146,509.542633 1496.802368,519.070374 
	C1425.833374,531.546631 1365.708618,595.569885 1366.700806,681.052124 
	C1367.380371,739.600403 1393.210815,785.995544 1443.715088,819.426819 
z"/>
<path fill="#FDFDFE" opacity="1.000000" stroke="none" 
	d="
M700.710571,710.721069 
	C741.523438,663.565674 792.639404,640.971985 854.094910,644.282959 
	C944.153503,649.135010 1011.923950,717.103455 1024.251831,796.427490 
	C1040.965332,903.969788 961.963623,993.390747 865.204895,1004.549927 
	C776.200256,1014.814697 691.986816,961.128540 667.205750,875.834167 
	C649.732178,815.691467 661.605652,760.571228 700.710571,710.721069 
M783.291443,728.134888 
	C740.122131,756.647888 721.953613,808.979065 736.038086,857.691956 
	C753.798767,919.119568 818.063965,953.619629 877.642334,933.851807 
	C929.612793,916.608337 962.589172,861.840637 953.526184,806.829285 
	C940.244751,726.212219 852.991943,684.401123 783.291443,728.134888 
z"/>
<path fill="#FDFDFE" opacity="1.000000" stroke="none" 
	d="
M1997.531738,2035.857666 
	C1976.958008,2035.857666 1957.334717,2035.857666 1936.239624,2035.857666 
	C1944.652466,1938.819092 1953.001343,1842.519653 1961.381592,1745.858154 
	C1995.878418,1745.858154 2029.466797,1745.858154 2064.311035,1745.858154 
	C2073.479248,1768.412231 2083.210693,1791.294189 2092.093506,1814.500610 
	C2101.009766,1837.793823 2109.827881,1861.175415 2117.309570,1884.952271 
	C2124.695312,1908.424438 2130.355225,1932.439819 2136.771973,1956.216919 
	C2137.529053,1956.120483 2138.286133,1956.024170 2139.043213,1955.927734 
	C2139.043213,1932.957520 2138.677490,1909.979736 2139.144775,1887.018921 
	C2139.625732,1863.377930 2140.551025,1839.731323 2141.960205,1816.127808 
	C2143.348145,1792.879395 2145.585693,1769.681641 2147.489746,1745.970825 
	C2171.671631,1745.970825 2195.168945,1745.970825 2219.816895,1745.970825 
	C2211.418945,1842.719116 2203.057617,1939.045654 2194.679443,2035.563965 
	C2160.238037,2035.563965 2126.949707,2035.563965 2092.494385,2035.563965 
	C2086.006592,2017.878906 2079.326660,1999.899780 2072.815674,1981.859863 
	C2066.150635,1963.393433 2059.306885,1944.980713 2053.176514,1926.335571 
	C2047.150757,1908.008301 2041.868408,1889.434937 2036.360229,1870.939575 
	C2030.932251,1852.712769 2026.955322,1834.051270 2020.239990,1816.048706 
	C2016.493164,1823.633667 2018.208984,1831.467651 2017.906494,1839.085571 
	C2017.576050,1847.405151 2017.759277,1855.744629 2017.684570,1864.075195 
	C2017.612793,1872.071045 2017.592285,1880.069092 2017.375366,1888.061523 
	C2017.149414,1896.385498 2016.655640,1904.701904 2016.390137,1913.025269 
	C2016.135376,1921.018066 2016.128174,1929.019531 2015.818848,1937.009766 
	C2015.496582,1945.330322 2014.965210,1953.643188 2014.484375,1961.957031 
	C2014.022827,1969.937622 2013.612427,1977.923340 2012.989136,1985.891968 
	C2012.339844,1994.192871 2011.435181,2002.473633 2010.693115,2010.767700 
	C2009.983521,2018.700439 2009.339478,2026.639038 2008.603516,2035.319580 
	C2004.846313,2035.519287 2001.664062,2035.688477 1997.531738,2035.857666 
z"/>
<path fill="#58D1FB" opacity="1.000000" stroke="none" 
	d="
M2281.236084,846.706238 
	C2329.561523,873.762756 2358.635986,914.056946 2365.254883,968.201965 
	C2376.319580,1058.715210 2314.585938,1128.155762 2241.690918,1143.982910 
	C2149.648682,1163.967285 2060.872559,1102.733887 2048.715576,1009.260254 
	C2035.987305,911.396240 2108.506836,838.551331 2187.650391,829.582886 
	C2220.479736,825.862793 2251.249268,831.669556 2281.236084,846.706238 
M2140.948242,930.002869 
	C2122.307617,951.559082 2115.700928,976.649292 2120.510254,1004.417664 
	C2127.060303,1042.237305 2159.766602,1071.922852 2197.999023,1075.768433 
	C2237.269287,1079.718384 2274.616211,1056.708862 2289.059814,1019.665833 
	C2303.223389,983.340942 2291.041992,941.178955 2259.626465,917.768982 
	C2222.621826,890.194031 2172.434814,895.575134 2140.948242,930.002869 
z"/>
<path fill="#FDFDFE" opacity="1.000000" stroke="none" 
	d="
M1434.408081,1912.339844 
	C1437.007812,1882.889771 1439.556885,1854.364136 1442.036011,1825.832397 
	C1444.226929,1800.617798 1446.329590,1775.395264 1448.516113,1750.180176 
	C1448.626709,1748.904297 1449.162231,1747.665527 1449.584839,1746.093506 
	C1451.663818,1745.857422 1453.588989,1745.446533 1455.513672,1745.448608 
	C1498.159790,1745.494873 1540.806396,1745.495850 1583.451782,1745.718140 
	C1598.860840,1745.798462 1613.940674,1748.290405 1628.504028,1753.523682 
	C1659.340332,1764.604858 1676.052490,1786.543213 1678.313965,1819.158447 
	C1680.890381,1856.316650 1671.746948,1889.894897 1646.033936,1917.750977 
	C1639.542847,1924.783081 1631.746338,1930.610229 1624.075073,1937.411865 
	C1626.828735,1942.588745 1629.728516,1948.139893 1632.717773,1953.642456 
	C1645.429810,1977.041748 1658.223022,2000.397217 1670.835449,2023.850098 
	C1672.615234,2027.160034 1673.559204,2030.919434 1675.236816,2035.395752 
	C1642.777344,2035.395752 1611.899292,2035.395752 1580.487427,2035.395752 
	C1569.032593,2008.620483 1557.530396,1981.734863 1545.749512,1954.197510 
	C1534.827759,1954.197510 1523.991089,1954.197510 1512.164185,1954.197510 
	C1509.751221,1980.919434 1507.309326,2007.962036 1504.833008,2035.384521 
	C1477.842773,2035.384521 1451.653809,2035.384521 1424.008057,2035.384521 
	C1427.463379,1994.492798 1430.895264,1953.877319 1434.408081,1912.339844 
M1585.899902,1891.684204 
	C1592.329102,1879.456909 1596.259155,1866.466309 1597.457520,1852.710083 
	C1599.290527,1831.667114 1589.583374,1818.092407 1569.439453,1814.620972 
	C1554.641724,1812.070801 1539.711182,1813.688232 1524.265991,1814.315186 
	C1521.994141,1840.869751 1519.791260,1866.615967 1517.489380,1893.520508 
	C1527.362061,1893.857300 1536.254639,1894.498169 1545.137573,1894.384521 
	C1558.398804,1894.215088 1571.653198,1893.514160 1585.899902,1891.684204 
z"/>
<path fill="#FDFDFE" opacity="1.000000" stroke="none" 
	d="
M806.924316,1762.876831 
	C828.106750,1749.095093 851.028381,1742.500488 875.174316,1740.473755 
	C897.111206,1738.632568 919.059631,1739.160278 940.775085,1743.806641 
	C983.687195,1752.988403 1009.399170,1779.189575 1015.555847,1822.697021 
	C1021.664917,1865.867920 1018.048706,1908.513184 1002.667236,1949.529907 
	C981.909851,2004.882568 941.317688,2034.619141 882.662903,2040.417114 
	C859.922241,2042.665039 837.444458,2041.621094 815.164001,2036.765869 
	C773.226685,2027.627319 748.822754,2001.214478 742.594910,1959.294800 
	C735.935852,1914.472656 740.041809,1870.239746 756.236206,1827.654175 
	C766.287476,1801.222656 782.432068,1779.142822 806.924316,1762.876831 
M877.128052,1810.345703 
	C866.563599,1811.577637 856.011230,1812.930054 845.429382,1813.988892 
	C840.371460,1814.495117 837.718506,1817.153809 836.579834,1821.883057 
	C833.390442,1835.130371 829.412354,1848.235596 827.071472,1861.628662 
	C823.283997,1883.297974 821.167480,1905.174438 823.938477,1927.225830 
	C826.960144,1951.271851 840.168335,1966.723389 862.216858,1969.489868 
	C881.435608,1971.901123 900.708252,1970.742554 919.605774,1965.107178 
	C926.954224,1945.426270 931.275330,1925.284058 933.654541,1904.769775 
	C935.686829,1887.246826 937.100342,1869.665771 934.045837,1852.016113 
	C929.882263,1827.958130 916.988586,1814.840454 892.903259,1811.181396 
	C888.324646,1810.485840 883.622742,1810.602173 877.128052,1810.345703 
z"/>
<path fill="#FDFDFE" opacity="1.000000" stroke="none" 
	d="
M2419.389404,2042.656128 
	C2401.093506,2043.186646 2383.842773,2042.110107 2366.964844,2037.715820 
	C2326.011475,2027.054077 2302.644043,1999.844849 2296.393066,1958.799927 
	C2289.837646,1915.752686 2293.125488,1873.008057 2307.455322,1831.677246 
	C2326.626465,1776.382568 2366.141113,1746.273071 2424.025635,1739.626343 
	C2448.729004,1736.789917 2473.249023,1737.242310 2497.385986,1743.589722 
	C2535.488525,1753.609985 2555.936279,1778.843872 2557.830078,1818.129883 
	C2558.261963,1827.090820 2557.740967,1836.101929 2557.516357,1845.086548 
	C2557.467773,1847.030029 2556.807617,1848.958130 2556.325195,1851.425781 
	C2531.293457,1851.425781 2506.470215,1851.425781 2480.317871,1851.425781 
	C2480.317871,1847.696899 2480.370361,1843.842285 2480.309082,1839.989624 
	C2480.013184,1821.448486 2472.474365,1812.863647 2453.834961,1812.113281 
	C2439.237793,1811.525635 2424.572510,1812.573486 2409.939941,1812.980591 
	C2407.286377,1813.054443 2404.651123,1813.641724 2401.995850,1813.824829 
	C2386.806641,1814.872925 2389.780029,1815.182983 2386.735840,1826.283447 
	C2378.041016,1857.988159 2374.960693,1890.412598 2376.306641,1923.216187 
	C2376.577148,1929.799927 2377.961426,1936.421265 2379.538086,1942.852173 
	C2384.323486,1962.374634 2397.115723,1974.137939 2416.650879,1977.292114 
	C2434.111328,1980.111328 2451.763428,1979.229370 2470.396484,1975.689331 
	C2472.447021,1961.318848 2474.482910,1947.051147 2476.604248,1932.186523 
	C2459.651367,1933.749023 2444.267578,1935.166992 2427.425781,1936.719238 
	C2429.079102,1917.035767 2430.598389,1898.950073 2432.177002,1880.153564 
	C2473.240967,1880.153564 2514.011475,1880.153564 2556.178467,1880.153564 
	C2556.178467,1886.065796 2556.153076,1891.954834 2556.183105,1897.843750 
	C2556.279053,1916.567261 2554.443115,1935.076904 2549.949219,1953.277710 
	C2538.522217,1999.561646 2509.393555,2027.950684 2462.874512,2037.744385 
	C2448.958984,2040.673950 2434.511475,2041.077393 2419.389404,2042.656128 
z"/>
<path fill="#FDFDFE" opacity="1.000000" stroke="none" 
	d="
M610.174927,1743.744629 
	C612.877441,1744.500122 614.783630,1745.082886 616.686951,1745.674805 
	C642.920898,1753.835083 658.042053,1771.390381 661.149109,1798.808105 
	C662.459595,1810.371704 662.509033,1821.969238 660.037048,1833.547119 
	C632.950806,1833.547119 606.418457,1833.547119 579.301208,1833.547119 
	C579.301208,1828.797119 579.710327,1824.469971 579.224976,1820.245605 
	C577.727234,1807.208130 571.819031,1801.270142 558.720581,1800.028931 
	C543.724609,1798.607910 528.795532,1799.494995 513.009216,1802.834351 
	C512.258118,1805.958496 511.216125,1809.394287 510.625275,1812.905884 
	C508.064514,1828.125488 511.787781,1836.469482 525.941772,1842.733521 
	C536.524231,1847.417114 547.908630,1850.278198 558.908325,1854.031860 
	C576.196655,1859.931396 593.662170,1865.389160 610.648010,1872.063843 
	C618.576965,1875.179565 625.910217,1880.217773 632.895935,1885.243042 
	C647.455872,1895.716553 655.769470,1910.265747 657.461731,1928.095459 
	C659.242615,1946.859009 657.391113,1965.337646 650.740479,1983.147583 
	C642.461182,2005.318726 626.777710,2020.326416 605.481201,2029.902222 
	C591.054504,2036.388916 575.781799,2039.947266 560.177979,2041.351929 
	C531.905090,2043.897339 503.573639,2044.082520 475.686279,2037.821289 
	C466.685364,2035.800537 457.757324,2032.611816 449.420258,2028.645142 
	C429.445953,2019.141968 418.565796,2002.470459 416.272766,1980.834839 
	C415.022766,1969.040771 416.049622,1957.005371 416.049622,1944.361206 
	C443.140533,1944.361206 469.638916,1944.361206 496.838470,1944.361206 
	C497.040253,1948.308838 497.051117,1952.526733 497.507568,1956.695801 
	C498.838776,1968.854614 504.470825,1976.199219 516.557373,1977.660889 
	C529.678833,1979.247803 543.060852,1978.967041 556.327637,1978.928955 
	C561.897827,1978.913086 567.463867,1977.429321 573.681519,1976.517578 
	C574.372986,1971.572510 575.313171,1967.037720 575.582886,1962.463257 
	C576.138672,1953.036255 572.619141,1945.010010 564.262024,1940.656250 
	C554.889404,1935.773438 545.012024,1931.640625 534.985413,1928.282715 
	C519.549805,1923.113403 503.621552,1919.396484 488.249725,1914.062256 
	C478.895172,1910.815918 469.849854,1906.278931 461.269348,1901.284424 
	C443.099213,1890.708374 432.711304,1874.560913 430.610260,1853.614868 
	C428.694550,1834.516235 430.419006,1815.679810 437.241730,1797.564697 
	C445.994232,1774.325439 462.757416,1759.090698 485.394043,1749.784668 
	C501.275269,1743.255737 517.935608,1740.264038 534.931885,1738.969116 
	C559.945984,1737.063477 584.843933,1737.494019 610.174927,1743.744629 
z"/>
<path fill="#FDFDFE" opacity="1.000000" stroke="none" 
	d="
M1222.000488,1745.417847 
	C1248.251221,1745.417847 1273.501953,1745.417847 1299.450806,1745.417847 
	C1315.930786,1842.367310 1332.284424,1938.572876 1348.746338,2035.415527 
	C1319.279907,2035.415527 1291.084351,2035.415527 1262.110962,2035.415527 
	C1259.955078,2018.151367 1257.824951,2001.094604 1255.576660,1983.090332 
	C1227.121582,1987.408447 1199.077759,1988.392334 1170.027954,1982.726807 
	C1164.596558,2000.421753 1159.272339,2017.767944 1153.857422,2035.409424 
	C1126.349243,2035.409424 1099.204224,2035.409424 1070.539307,2035.409424 
	C1103.805786,1938.505493 1136.800659,1842.392456 1170.091431,1745.417847 
	C1187.194092,1745.417847 1204.097290,1745.417847 1222.000488,1745.417847 
M1212.991455,1835.946899 
	C1204.672729,1865.914429 1196.354126,1895.881958 1187.848755,1926.521729 
	C1208.168701,1926.521729 1227.909546,1926.521729 1247.940430,1926.521729 
	C1244.150513,1887.372681 1240.414551,1848.779663 1236.618286,1809.565430 
	C1231.647583,1809.565430 1226.118042,1809.565430 1220.641357,1809.565430 
	C1220.158813,1810.168457 1219.521240,1810.623779 1219.370361,1811.205200 
	C1217.371826,1818.915283 1215.441406,1826.642944 1212.991455,1835.946899 
z"/>
<path fill="#B8E9FE" opacity="1.000000" stroke="none" 
	d="
M1170.155273,1594.070679 
	C1149.260620,1597.469849 1128.813965,1594.394531 1109.294189,1587.449707 
	C1050.325195,1566.469604 1014.272644,1525.310791 1004.777100,1462.958130 
	C1000.464966,1434.642700 1004.657898,1406.475586 1013.096863,1379.167725 
	C1017.704834,1364.256348 1022.682373,1349.375854 1028.759521,1335.017456 
	C1047.973267,1289.621338 1069.898193,1245.581787 1096.850830,1204.186279 
	C1098.099609,1202.268311 1099.201660,1200.255005 1100.790649,1197.581909 
	C1065.823242,1161.003296 1027.216919,1130.206909 978.939819,1111.582031 
	C979.122253,1108.457153 979.892578,1106.530273 979.902039,1104.599609 
	C979.998291,1085.047852 980.043213,1065.494873 979.887573,1045.944092 
	C979.867432,1043.410156 978.631897,1040.886108 977.959351,1038.357422 
	C997.402039,1041.967041 1015.540222,1049.336792 1033.270996,1057.780029 
	C1065.681763,1073.213989 1094.677124,1093.709961 1121.875488,1118.515625 
	C1122.729614,1119.689209 1123.071289,1119.931396 1123.471802,1120.090454 
	C1123.471802,1120.090454 1123.889893,1120.071167 1124.124390,1120.606689 
	C1124.701660,1121.549194 1125.120117,1121.851074 1125.614380,1122.047729 
	C1130.250122,1126.262329 1134.885986,1130.476807 1139.765625,1136.243652 
	C1140.006348,1176.770142 1139.939087,1215.744873 1140.102295,1254.718506 
	C1140.118164,1258.508057 1141.558472,1262.291382 1142.187988,1266.772461 
	C1122.655762,1301.329956 1105.359375,1336.223267 1091.051025,1372.529663 
	C1082.851807,1393.334595 1076.420166,1414.617676 1075.310303,1437.255859 
	C1073.594849,1472.249634 1091.712646,1502.037598 1123.697510,1516.339844 
	C1137.095337,1522.330688 1151.153809,1524.037231 1166.362549,1524.102295 
	C1171.161865,1526.814941 1169.922119,1530.837524 1169.949097,1534.303345 
	C1170.104126,1554.225220 1170.103271,1574.148071 1170.155273,1594.070679 
z"/>
<path fill="#FBFCFE" opacity="1.000000" stroke="none" 
	d="
M1016.443481,2170.439453 
	C1045.773438,2142.719727 1080.698975,2134.143066 1119.168091,2136.796631 
	C1133.502686,2137.785400 1147.578003,2140.463623 1160.866211,2146.182129 
	C1195.306152,2161.002930 1213.525269,2187.445557 1217.109253,2225.306641 
	C1195.577637,2225.306641 1174.484253,2225.306641 1153.314941,2225.306641 
	C1151.648926,2220.206055 1150.269775,2215.102539 1148.332031,2210.220947 
	C1143.047363,2196.907227 1133.409058,2188.631104 1119.362305,2185.236816 
	C1095.372925,2179.440674 1072.857178,2188.563721 1060.073486,2209.674561 
	C1053.939697,2219.803711 1050.577515,2230.924316 1049.124878,2242.594482 
	C1046.421875,2264.309082 1047.079102,2285.858154 1054.176880,2306.755615 
	C1060.024658,2323.972900 1070.232178,2337.727295 1088.666992,2342.625977 
	C1115.746948,2349.821289 1142.491211,2341.571777 1153.474854,2308.726318 
	C1153.657104,2308.181641 1153.315674,2307.461426 1153.122192,2306.188965 
	C1138.350220,2306.188965 1123.470337,2306.188965 1107.109009,2306.188965 
	C1107.058350,2297.449951 1106.993042,2289.303467 1106.968994,2281.156982 
	C1106.945435,2273.205322 1106.963867,2265.253418 1106.963867,2256.659668 
	C1143.206665,2256.659668 1178.677246,2256.659668 1214.212769,2256.659668 
	C1216.139404,2263.665283 1216.948730,2362.878906 1215.096069,2387.278320 
	C1207.078369,2387.332031 1198.898804,2387.407471 1190.719116,2387.435547 
	C1182.737305,2387.462891 1174.755371,2387.441895 1165.653687,2387.441895 
	C1163.679443,2376.264160 1161.740845,2365.288330 1159.802246,2354.312500 
	C1159.280029,2354.145752 1158.757812,2353.978760 1158.235596,2353.811768 
	C1156.237793,2358.540283 1153.593384,2363.110596 1152.389282,2368.033203 
	C1150.433594,2376.029053 1145.244263,2380.959229 1138.226196,2383.633789 
	C1129.900513,2386.807373 1121.281128,2389.970459 1112.526123,2391.099365 
	C1093.942993,2393.495361 1075.251221,2393.029297 1057.062988,2387.709717 
	C1027.929565,2379.188477 1006.689941,2361.176514 993.917603,2333.606934 
	C982.006165,2307.895752 978.931274,2280.633789 980.977844,2252.657715 
	C982.604248,2230.425537 988.167297,2209.283691 1000.458557,2190.447021 
	C1004.975891,2183.523926 1010.745178,2177.417480 1016.443481,2170.439453 
z"/>
<path fill="#FAFAFD" opacity="1.000000" stroke="none" 
	d="
M2019.694702,2326.000000 
	C2019.694702,2346.633301 2019.694702,2366.266602 2019.694702,2387.180908 
	C2008.715942,2387.719727 1998.165894,2387.383545 1987.639893,2387.442627 
	C1977.329102,2387.500732 1967.017578,2387.455566 1955.233887,2387.455566 
	C1954.488525,2355.654053 1955.341064,2324.239746 1954.762085,2292.382812 
	C1922.129883,2292.382812 1890.293213,2292.382812 1857.375977,2292.382812 
	C1857.375977,2323.686768 1857.375977,2354.805420 1857.375977,2385.615234 
	C1849.386108,2387.794434 1807.805054,2388.330811 1793.301758,2386.625000 
	C1793.301758,2305.310791 1793.301758,2223.904785 1793.301758,2141.945068 
	C1814.184448,2141.945068 1835.020142,2141.945068 1856.875732,2141.945068 
	C1856.875732,2175.008301 1856.875732,2207.824219 1856.875732,2241.220703 
	C1889.711304,2241.220703 1921.536743,2241.220703 1954.405762,2241.220703 
	C1954.405762,2208.358154 1954.405762,2175.564209 1954.405762,2142.086426 
	C1976.569458,2142.086426 1997.702759,2142.086426 2019.694702,2142.086426 
	C2019.694702,2203.228027 2019.694702,2264.114014 2019.694702,2326.000000 
z"/>
<path fill="#FDFDFE" opacity="1.000000" stroke="none" 
	d="
M2496.804688,2387.433105 
	C2493.585449,2387.432861 2491.270752,2387.432861 2488.636475,2387.432861 
	C2483.226318,2374.099365 2480.302002,2360.498535 2477.937988,2346.743652 
	C2476.586670,2338.880371 2475.865479,2330.833984 2473.668945,2323.213623 
	C2471.857910,2316.930908 2468.819092,2310.829834 2465.370850,2305.235840 
	C2461.337158,2298.692627 2454.772461,2294.808838 2447.102783,2294.452881 
	C2435.874512,2293.932129 2424.604736,2294.318848 2412.369141,2294.318848 
	C2412.369141,2325.289795 2412.369141,2355.763916 2412.369141,2386.827148 
	C2390.587402,2386.827148 2369.791260,2386.827148 2348.406494,2386.827148 
	C2348.406494,2305.116699 2348.406494,2223.737549 2348.406494,2141.784424 
	C2351.034424,2141.649902 2353.283447,2141.431885 2355.531982,2141.435303 
	C2390.500732,2141.487793 2425.469482,2141.506104 2460.437744,2141.672119 
	C2475.793701,2141.744873 2490.975586,2143.164795 2505.783203,2147.741455 
	C2551.577393,2161.895264 2556.009521,2202.645752 2546.959473,2231.192871 
	C2541.559570,2248.227051 2528.742676,2258.573975 2512.937256,2265.635254 
	C2510.216553,2266.850830 2507.386475,2267.821533 2503.810059,2269.216064 
	C2505.441895,2270.463135 2506.533203,2271.610352 2507.866211,2272.267334 
	C2522.927246,2279.690918 2532.015625,2291.958496 2535.865234,2307.962158 
	C2538.191895,2317.634766 2539.458496,2327.571045 2541.012695,2337.418945 
	C2543.570801,2353.625244 2547.562988,2369.338867 2555.952637,2383.657227 
	C2556.400391,2384.421631 2556.319092,2385.496094 2556.662598,2387.433105 
	C2536.740967,2387.433105 2517.225098,2387.433105 2496.804688,2387.433105 
M2412.143555,2236.632080 
	C2412.285645,2240.138916 2412.427490,2243.645752 2412.621826,2248.443115 
	C2429.355957,2247.577637 2445.035156,2247.645264 2460.465820,2245.720215 
	C2475.768555,2243.810791 2483.751221,2233.569092 2483.678467,2219.150146 
	C2483.605469,2204.677979 2476.438721,2195.531982 2461.376465,2192.905029 
	C2445.323242,2190.105225 2429.079346,2191.986816 2412.143555,2191.604980 
	C2412.143555,2206.854004 2412.143555,2220.784180 2412.143555,2236.632080 
z"/>
<path fill="#FCFDFE" opacity="1.000000" stroke="none" 
	d="
M917.398071,2214.645996 
	C927.003113,2246.815674 927.858215,2278.452393 918.407349,2309.876953 
	C904.805603,2355.103271 873.522949,2381.044189 827.708740,2389.772461 
	C806.234741,2393.863281 784.611816,2393.440674 763.257080,2388.249268 
	C720.083862,2377.753906 691.659241,2351.309082 679.260498,2308.637207 
	C670.313049,2277.843018 670.462891,2246.575195 680.399597,2216.083496 
	C695.298767,2170.364502 728.211548,2145.504883 775.024170,2138.051270 
	C795.676819,2134.762695 816.292664,2135.542969 836.512573,2140.687988 
	C876.217773,2150.790527 903.390503,2175.035400 917.398071,2214.645996 
M849.688538,2215.597412 
	C842.606750,2201.203125 832.140747,2190.438965 816.342346,2186.103271 
	C791.525574,2179.292236 760.604370,2184.896729 746.430908,2220.041504 
	C739.829590,2236.410156 738.564880,2253.643799 739.221802,2271.080566 
	C739.752014,2285.153076 741.930298,2298.903564 747.925476,2311.812500 
	C754.673950,2326.343262 764.873779,2337.332031 780.549500,2342.122070 
	C805.616821,2349.781494 838.438660,2344.090088 851.688049,2307.769775 
	C862.667114,2277.673096 862.146790,2247.081787 849.688538,2215.597412 
z"/>
<path fill="#FBFAFD" opacity="1.000000" stroke="none" 
	d="
M1447.725830,2289.076172 
	C1415.216187,2289.076172 1383.665771,2289.076172 1351.734863,2289.076172 
	C1351.734863,2305.665039 1351.734863,2321.105225 1351.734863,2337.322510 
	C1392.953369,2337.322510 1433.494141,2337.322510 1474.730713,2337.322510 
	C1474.730713,2354.154785 1474.730713,2370.211426 1474.730713,2386.863281 
	C1412.243896,2386.863281 1350.106689,2386.863281 1287.266235,2386.863281 
	C1287.266235,2305.222656 1287.266235,2223.816162 1287.266235,2141.903809 
	C1348.682983,2141.903809 1409.863647,2141.903809 1471.450195,2141.903809 
	C1471.450195,2158.231934 1471.450195,2174.143066 1471.450195,2191.347412 
	C1431.671387,2192.174072 1391.897583,2191.271240 1351.615234,2191.853760 
	C1351.615234,2207.683838 1351.615234,2222.782715 1351.615234,2238.893555 
	C1389.305786,2238.893555 1426.447266,2238.893555 1464.103638,2238.893555 
	C1464.103638,2255.760010 1464.103638,2271.624512 1464.103638,2288.876221 
	C1459.014893,2288.942383 1453.849976,2289.009277 1447.725830,2289.076172 
z"/>
<path fill="#FDFCFE" opacity="1.000000" stroke="none" 
	d="
M2186.000488,2141.414551 
	C2217.259033,2141.414551 2247.517822,2141.414551 2278.103516,2141.414551 
	C2278.103516,2158.518066 2278.103516,2174.716309 2278.103516,2191.742920 
	C2238.091064,2191.742920 2198.585938,2191.742920 2158.554443,2191.742920 
	C2158.554443,2207.703369 2158.554443,2222.833252 2158.554443,2238.955566 
	C2196.170166,2238.955566 2233.329834,2238.955566 2271.078125,2238.955566 
	C2271.078125,2255.763428 2271.078125,2271.594727 2271.078125,2288.899170 
	C2233.850586,2289.339600 2196.434082,2288.809570 2158.537354,2289.186279 
	C2158.537354,2305.266357 2158.537354,2320.483398 2158.537354,2337.141602 
	C2171.885742,2337.698730 2185.384521,2337.337158 2198.860840,2337.400635 
	C2212.518311,2337.464844 2226.176514,2337.414551 2239.834229,2337.414551 
	C2253.476807,2337.414551 2267.119385,2337.414551 2281.469971,2337.414551 
	C2281.469971,2353.954346 2281.469971,2370.075195 2281.469971,2386.822266 
	C2219.286377,2386.822266 2157.164307,2386.822266 2094.346680,2386.822266 
	C2094.346680,2305.308594 2094.346680,2223.925781 2094.346680,2141.414551 
	C2124.621094,2141.414551 2154.810547,2141.414551 2186.000488,2141.414551 
z"/>
<path fill="#60CFFE" opacity="1.000000" stroke="none" 
	d="
M2064.010498,1146.212402 
	C2070.073975,1146.090210 2076.137695,1145.967773 2083.695312,1146.463745 
	C2090.900635,1148.096069 2092.161865,1151.732910 2092.098877,1157.125244 
	C2091.862793,1177.366943 2092.032471,1197.613525 2092.050049,1217.858276 
	C2057.203125,1214.413208 2024.756958,1223.544922 1993.099487,1236.773071 
	C1990.337646,1237.927124 1987.633057,1239.224854 1984.945312,1240.544067 
	C1984.395874,1240.813843 1984.041504,1241.481323 1982.833862,1242.797119 
	C1984.213867,1245.883179 1985.750732,1249.430908 1987.375854,1252.937622 
	C2003.796265,1288.370850 2017.865845,1324.634521 2024.874268,1363.230835 
	C2030.231323,1392.733521 2029.191040,1421.692261 2014.353882,1448.720825 
	C1999.093018,1476.520874 1976.616943,1495.675171 1944.964966,1503.555420 
	C1944.080322,1485.168701 1943.858643,1467.697021 1944.091064,1450.231323 
	C1944.181274,1443.440918 1943.283081,1437.126587 1939.622803,1430.636475 
	C1940.347656,1428.900513 1940.959351,1427.695801 1941.887573,1426.830688 
	C1952.281982,1417.142212 1957.123413,1405.076904 1955.816162,1391.086914 
	C1954.834473,1380.581543 1953.270386,1370.001831 1950.597046,1359.814453 
	C1946.908569,1345.758179 1941.931641,1332.039917 1938.171997,1317.795898 
	C1943.249512,1314.013916 1944.192627,1309.224731 1943.978027,1304.086792 
	C1942.187378,1261.195679 1948.054199,1218.084961 1940.295410,1175.365723 
	C1944.623169,1179.289429 1948.882324,1178.319946 1953.810913,1176.048706 
	C1980.414917,1163.787598 2007.999268,1154.421997 2036.872314,1149.114502 
	C2040.452881,1148.456177 2044.094727,1148.132202 2049.420410,1147.805176 
	C2055.425293,1147.375610 2059.717773,1146.794067 2064.010498,1146.212402 
z"/>
<path fill="#40C5FE" opacity="1.000000" stroke="none" 
	d="
M2448.040283,1334.012939 
	C2427.483398,1345.412720 2405.194092,1352.055542 2382.590088,1357.826416 
	C2379.056152,1358.728760 2375.492432,1359.515503 2370.645264,1360.662598 
	C2372.312500,1364.235596 2373.685791,1367.417114 2375.253174,1370.499634 
	C2388.720215,1396.984619 2400.120605,1424.328003 2408.979736,1452.688354 
	C2410.746094,1458.342529 2412.173096,1464.343506 2412.314209,1470.219360 
	C2412.731201,1487.544800 2401.033691,1501.697388 2384.133301,1505.335449 
	C2367.732178,1508.865845 2350.852051,1500.103638 2344.100586,1484.320312 
	C2342.273438,1480.049072 2341.088379,1475.501953 2339.630615,1471.074219 
	C2322.924316,1420.336792 2299.149658,1373.275513 2266.673340,1330.735352 
	C2265.666016,1329.415894 2264.801025,1327.987793 2263.938965,1325.051270 
	C2264.671875,1318.609375 2265.789062,1313.737793 2265.908691,1308.841919 
	C2266.191650,1297.270630 2266.245361,1285.681519 2265.940918,1274.111450 
	C2265.510010,1257.725830 2268.299805,1241.072388 2262.237061,1225.099487 
	C2262.020264,1224.528809 2262.249023,1223.788818 2262.270264,1223.127808 
	C2282.004150,1238.635498 2298.545654,1257.278564 2314.592041,1276.407227 
	C2315.233398,1277.171875 2315.818848,1277.984253 2316.472656,1278.737305 
	C2320.790771,1283.710571 2324.267334,1291.069336 2329.676025,1292.994751 
	C2335.590820,1295.100342 2343.360840,1292.562744 2350.208008,1291.383789 
	C2381.686035,1285.964355 2411.132812,1275.018188 2439.489746,1257.944092 
	C2441.151367,1257.295654 2441.611328,1256.880249 2441.973877,1256.357300 
	C2442.223633,1256.136353 2442.473145,1255.915405 2443.586914,1256.229004 
	C2447.702881,1260.522095 2448.064941,1264.998291 2448.045166,1269.737671 
	C2447.955322,1291.162354 2448.026855,1312.587769 2448.040283,1334.012939 
z"/>
<path fill="#E7F7FE" opacity="1.000000" stroke="none" 
	d="
M645.938354,1355.680664 
	C645.132446,1358.195679 644.326538,1360.710571 642.848755,1364.008545 
	C642.176941,1364.791626 641.941467,1365.698730 641.941528,1365.698730 
	C637.449036,1378.899902 632.237549,1391.907593 628.619507,1405.344238 
	C621.880859,1430.370361 615.536804,1455.530396 610.030762,1480.852661 
	C605.050293,1503.758057 584.599487,1517.221558 563.291992,1510.341675 
	C545.907410,1504.728394 535.815186,1487.929443 538.962891,1469.643921 
	C545.469604,1431.845337 555.797119,1395.063232 568.574951,1358.939453 
	C569.554688,1356.169800 570.560547,1353.409302 571.936584,1349.580688 
	C543.362183,1342.599854 516.148987,1333.258667 490.708923,1318.067993 
	C494.107117,1313.038330 494.136749,1308.422607 494.010040,1303.734985 
	C493.394928,1280.978760 492.810822,1258.221680 492.215729,1235.464966 
	C493.906982,1236.481079 495.701050,1237.359375 497.274261,1238.533569 
	C527.372192,1261.000366 561.214111,1274.686035 597.974121,1281.534912 
	C598.910278,1281.709351 599.907410,1281.556885 599.880188,1281.556885 
	C615.153503,1256.265259 630.047180,1231.602417 646.005920,1207.073975 
	C652.521912,1210.119873 652.019470,1215.247681 652.015686,1220.258301 
	C651.989441,1255.090454 651.932007,1289.922852 652.103333,1324.754150 
	C652.121948,1328.532837 653.535645,1332.304565 654.302246,1336.079590 
	C654.036072,1337.136230 653.769958,1338.192749 652.822449,1340.015259 
	C652.141052,1340.781128 651.918945,1341.574341 651.918945,1341.574341 
	C650.460876,1345.465210 649.002869,1349.356201 646.865479,1354.012207 
	C646.186218,1354.777222 645.938293,1355.680664 645.938354,1355.680664 
z"/>
<path fill="#FAFAFD" opacity="1.000000" stroke="none" 
	d="
M559.439392,2328.000488 
	C559.439392,2347.953857 559.439392,2366.906982 559.439392,2385.670898 
	C551.751099,2387.873047 506.181763,2388.219971 494.779236,2386.173340 
	C494.779236,2321.870850 494.779236,2257.397705 494.779236,2192.030518 
	C468.071289,2192.030518 442.227631,2192.030518 415.672791,2192.030518 
	C415.672791,2174.992432 415.672791,2158.831543 415.672791,2142.027832 
	C489.687408,2142.027832 563.782471,2142.027832 638.465088,2142.027832 
	C638.465088,2158.350342 638.465088,2174.469482 638.465088,2191.534180 
	C612.214905,2191.534180 586.408020,2191.534180 559.439392,2191.534180 
	C559.439392,2237.311523 559.439392,2282.156006 559.439392,2328.000488 
z"/>
<path fill="#FDFCFE" opacity="1.000000" stroke="none" 
	d="
M1597.378174,2249.998535 
	C1597.378174,2230.349365 1597.378174,2211.700684 1597.378174,2192.131836 
	C1571.039062,2192.131836 1545.199951,2192.131836 1519.020020,2192.131836 
	C1516.465942,2183.246826 1518.000732,2174.966553 1517.713867,2166.832031 
	C1517.433228,2158.871582 1517.652832,2150.893555 1517.652832,2143.049316 
	C1525.015625,2141.072266 1728.656372,2140.549072 1740.865479,2142.444824 
	C1740.865479,2158.221924 1740.865479,2174.097168 1740.865479,2190.593994 
	C1732.534424,2192.894043 1723.914673,2191.334473 1715.434448,2191.601074 
	C1706.444214,2191.884033 1697.437988,2191.664551 1688.438843,2191.664551 
	C1679.854614,2191.664551 1671.270386,2191.664551 1661.679932,2191.664551 
	C1661.679932,2224.751953 1661.679932,2256.978760 1661.679932,2289.205811 
	C1661.679932,2321.486328 1661.679932,2353.766846 1661.679932,2386.740234 
	C1640.166504,2386.740234 1619.353271,2386.740234 1597.378174,2386.740234 
	C1597.378174,2341.483643 1597.378174,2296.240967 1597.378174,2249.998535 
z"/>
<path fill="#FDFDFE" opacity="1.000000" stroke="none" 
	d="
M1762.148315,1958.026855 
	C1768.321045,1887.106567 1774.442749,1817.111572 1780.557861,1747.192749 
	C1787.524902,1745.026245 1846.954102,1744.401001 1862.077393,1746.444824 
	C1853.755249,1842.434570 1845.428223,1938.479736 1837.045776,2035.163574 
	C1810.017944,2035.163574 1783.564697,2035.163574 1755.661621,2035.163574 
	C1757.810913,2009.712646 1759.954102,1984.332397 1762.148315,1958.026855 
z"/>
<path fill="#2DBFFE" opacity="1.000000" stroke="none" 
	d="
M2448.748535,1333.928955 
	C2448.026855,1312.587769 2447.955322,1291.162354 2448.045166,1269.737671 
	C2448.064941,1264.998291 2447.702881,1260.522095 2444.049805,1256.040283 
	C2456.961182,1243.785522 2471.345459,1233.267456 2483.383301,1220.531494 
	C2518.471191,1183.407715 2538.250000,1138.340332 2547.958252,1088.636353 
	C2550.120850,1077.562866 2551.009766,1066.235107 2552.357178,1055.009155 
	C2554.125732,1040.273438 2561.120850,1029.249023 2575.110596,1023.523315 
	C2587.908691,1018.285217 2600.042725,1020.193665 2610.805420,1028.742432 
	C2620.293213,1036.278320 2624.627197,1046.429321 2624.071045,1058.579224 
	C2623.061768,1080.623291 2619.260498,1102.255005 2613.845459,1123.583618 
	C2598.867188,1182.577271 2571.578613,1234.851807 2528.147461,1278.033813 
	C2505.062256,1300.986816 2478.872559,1319.732910 2448.748535,1333.928955 
z"/>
<path fill="#F7FCFE" opacity="1.000000" stroke="none" 
	d="
M492.052399,1235.025879 
	C492.810822,1258.221680 493.394928,1280.978760 494.010040,1303.734985 
	C494.136749,1308.422607 494.107117,1313.038330 490.317932,1317.500244 
	C489.536011,1318.124512 489.135437,1318.064941 488.064087,1317.351196 
	C487.056366,1316.364990 486.652710,1316.173584 486.182343,1316.122925 
	C468.685303,1307.707153 453.135468,1296.276611 438.596069,1283.675415 
	C374.220032,1227.881226 340.812531,1155.739868 328.463593,1072.715942 
	C327.388031,1065.484985 326.707428,1058.167480 326.335938,1050.864990 
	C325.257812,1029.670776 339.371674,1012.894287 359.018799,1011.693359 
	C380.564606,1010.376404 396.140717,1024.734253 398.059631,1046.743774 
	C403.125641,1104.849121 422.080841,1157.591431 459.876953,1204.055054 
	C460.569763,1205.555176 460.988068,1205.891846 461.518402,1206.089233 
	C461.518402,1206.089233 461.944733,1206.130859 462.078583,1206.669067 
	C462.494965,1207.617065 462.866760,1207.915771 463.327850,1208.103271 
	C463.327850,1208.103271 463.853058,1208.245728 463.968872,1208.730957 
	C464.084717,1209.216309 464.767578,1209.832520 464.767578,1209.832520 
	C469.649384,1214.533691 474.531219,1219.234985 479.899963,1224.760986 
	C480.386871,1225.585815 481.160004,1226.075439 481.160004,1226.075439 
	C481.160004,1226.075439 481.751526,1226.166992 482.018677,1226.751099 
	C482.591888,1227.704712 482.974945,1227.957397 483.434998,1228.093506 
	C483.434998,1228.093506 483.888611,1228.053223 484.112885,1228.628662 
	C484.688538,1229.634399 485.134155,1229.915527 485.673981,1230.047485 
	C485.673981,1230.047485 485.971649,1230.010132 486.213501,1230.526611 
	C486.841949,1231.496338 487.323151,1231.799561 487.898926,1231.952881 
	C487.898926,1231.952881 488.038361,1231.939209 488.308533,1232.414551 
	C489.019562,1233.391113 489.565430,1233.715942 490.216309,1233.864380 
	C490.889282,1233.838013 491.446869,1234.078857 492.052399,1235.025879 
z"/>
<path fill="#ACE6FF" opacity="1.000000" stroke="none" 
	d="
M1142.337646,1266.077637 
	C1141.558472,1262.291382 1140.118164,1258.508057 1140.102295,1254.718506 
	C1139.939087,1215.744873 1140.006348,1176.770142 1140.028809,1136.853271 
	C1141.476318,1136.657227 1142.904541,1137.403442 1144.869751,1138.430298 
	C1180.286377,1096.143555 1219.604858,1058.193481 1266.015991,1026.196655 
	C1274.074829,1026.634155 1273.994995,1031.476440 1273.994385,1036.257690 
	C1273.991211,1060.738037 1273.984009,1085.218384 1273.978149,1109.698730 
	C1254.124146,1129.279053 1234.086548,1148.678589 1214.507935,1168.530396 
	C1206.863037,1176.281982 1200.249390,1185.050659 1192.932617,1193.629761 
	C1204.572266,1210.097778 1215.776367,1225.949463 1227.488770,1242.671753 
	C1228.214478,1244.194824 1228.431641,1244.847534 1228.648926,1245.500122 
	C1228.999268,1245.777832 1229.349609,1246.055664 1229.890869,1247.927246 
	C1230.054565,1270.065063 1230.015015,1290.609009 1230.003296,1311.152954 
	C1229.989502,1335.342041 1230.058838,1359.531494 1229.937134,1383.719971 
	C1229.918457,1387.416870 1231.508667,1391.983154 1226.146973,1393.248169 
	C1208.954224,1342.581909 1181.162720,1298.735596 1149.916016,1255.974609 
	C1146.977905,1259.891602 1144.657715,1262.984619 1142.337646,1266.077637 
z"/>
<path fill="#A6E3FE" opacity="1.000000" stroke="none" 
	d="
M1226.326782,1393.991821 
	C1231.508667,1391.983154 1229.918457,1387.416870 1229.937134,1383.719971 
	C1230.058838,1359.531494 1229.989502,1335.342041 1230.003296,1311.152954 
	C1230.015015,1290.609009 1230.054565,1270.065063 1230.118896,1248.557983 
	C1235.127319,1254.395386 1240.566895,1260.905640 1244.992554,1268.044556 
	C1269.283447,1307.227661 1289.807251,1348.142334 1300.786011,1393.261475 
	C1308.192017,1423.698120 1311.009033,1454.387207 1302.760498,1485.063110 
	C1287.922363,1540.245605 1250.132080,1572.779419 1197.289795,1589.699585 
	C1189.149658,1592.306152 1180.348999,1592.849243 1171.004517,1594.208496 
	C1170.103271,1574.148071 1170.104126,1554.225220 1169.949097,1534.303345 
	C1169.922119,1530.837524 1171.161865,1526.814941 1167.029785,1523.718994 
	C1167.911743,1522.791016 1168.870850,1522.518555 1169.847778,1522.347290 
	C1211.433960,1515.056396 1237.083008,1484.118896 1235.741333,1442.066528 
	C1235.216797,1425.628296 1231.444092,1409.630737 1226.326782,1393.991821 
z"/>
<path fill="#6CD2FE" opacity="1.000000" stroke="none" 
	d="
M1940.333984,1174.667969 
	C1948.054199,1218.084961 1942.187378,1261.195679 1943.978027,1304.086792 
	C1944.192627,1309.224731 1943.249512,1314.013916 1937.629395,1317.333252 
	C1931.877563,1306.330444 1927.523682,1295.324951 1922.709106,1284.524658 
	C1920.349487,1279.231567 1918.070679,1278.983398 1913.965332,1282.428345 
	C1890.474365,1302.140137 1869.187744,1323.683228 1855.390381,1351.561035 
	C1853.827637,1347.395874 1852.158569,1343.681396 1852.122681,1339.951050 
	C1851.885742,1315.346558 1852.009033,1290.738770 1851.988281,1266.131958 
	C1851.985718,1263.143311 1852.048462,1260.127075 1851.684082,1257.172729 
	C1851.128296,1252.666626 1848.715576,1249.860840 1843.805542,1249.938477 
	C1853.724854,1241.165161 1863.609619,1232.352173 1873.585815,1223.644287 
	C1876.296631,1221.278198 1879.283569,1219.228882 1883.257812,1216.178955 
	C1858.182007,1179.278687 1829.123047,1146.801880 1797.144897,1116.297607 
	C1798.385376,1112.039062 1799.865112,1108.683960 1799.892822,1105.316895 
	C1800.104736,1079.528076 1800.034058,1053.736816 1800.051270,1027.946411 
	C1811.558228,1036.955200 1823.446533,1045.521484 1834.502686,1055.053101 
	C1872.503906,1087.814209 1906.120361,1124.649780 1935.317139,1165.478027 
	C1937.226685,1168.148315 1938.697754,1171.132202 1940.333984,1174.667969 
z"/>
<path fill="#D9F3FE" opacity="1.000000" stroke="none" 
	d="
M654.838257,1335.656982 
	C653.535645,1332.304565 652.121948,1328.532837 652.103333,1324.754150 
	C651.932007,1289.922852 651.989441,1255.090454 652.015686,1220.258301 
	C652.019470,1215.247681 652.521912,1210.119873 646.552979,1206.694580 
	C652.052307,1197.455688 657.744629,1188.484497 664.141907,1180.047852 
	C694.506409,1140.003662 729.443665,1104.675781 771.800842,1077.178711 
	C779.035645,1072.481934 786.651001,1068.371460 795.551514,1064.057617 
	C804.187744,1065.583740 806.214233,1070.170410 806.110840,1077.152954 
	C805.802185,1098.003906 806.008972,1118.862305 806.014465,1139.717896 
	C772.780640,1163.652344 744.194763,1192.259888 719.690796,1225.053589 
	C694.062561,1259.351929 672.995850,1296.279297 654.838257,1335.656982 
z"/>
<path fill="#7CD7FE" opacity="1.000000" stroke="none" 
	d="
M1800.031006,1027.971680 
	C1800.034058,1053.736816 1800.104736,1079.528076 1799.892822,1105.316895 
	C1799.865112,1108.683960 1798.385376,1112.039062 1796.858398,1115.702393 
	C1779.662964,1103.204346 1763.384766,1090.139771 1746.672119,1077.656494 
	C1707.585571,1048.461670 1664.399536,1027.581909 1617.408203,1014.281494 
	C1622.492554,1011.884888 1621.966797,1007.632385 1621.977905,1003.722229 
	C1622.022583,987.903748 1622.299072,972.075806 1621.811768,956.272278 
	C1621.666870,951.574890 1619.303101,946.945984 1617.956055,942.285706 
	C1641.758179,946.006897 1664.355957,953.889709 1686.664429,962.589844 
	C1710.278564,971.799133 1732.892212,983.159119 1754.451172,996.481323 
	C1762.849243,1001.670898 1770.554199,1007.969910 1778.730469,1013.535156 
	C1784.724976,1017.615479 1790.973022,1021.323486 1797.809814,1026.100708 
	C1798.947266,1027.453491 1799.463379,1027.772583 1800.060059,1027.961426 
	C1800.060059,1027.961426 1800.010620,1027.996948 1800.031006,1027.971680 
z"/>
<path fill="#50CAFE" opacity="1.000000" stroke="none" 
	d="
M2261.908691,1222.608276 
	C2262.249023,1223.788818 2262.020264,1224.528809 2262.237061,1225.099487 
	C2268.299805,1241.072388 2265.510010,1257.725830 2265.940918,1274.111450 
	C2266.245361,1285.681519 2266.191650,1297.270630 2265.908691,1308.841919 
	C2265.789062,1313.737793 2264.671875,1318.609375 2263.815918,1324.419922 
	C2251.541016,1312.515869 2240.037598,1299.071899 2227.261475,1286.972290 
	C2195.388672,1256.787720 2159.209717,1233.684937 2116.032227,1223.014893 
	C2108.609375,1221.180664 2101.046143,1219.915894 2092.798828,1218.123169 
	C2092.032471,1197.613525 2091.862793,1177.366943 2092.098877,1157.125244 
	C2092.161865,1151.732910 2090.900635,1148.096069 2084.590088,1146.636230 
	C2104.837646,1146.100586 2124.916260,1150.764526 2144.742920,1156.494873 
	C2164.612549,1162.237793 2183.775635,1169.998413 2201.650879,1180.411255 
	C2213.529053,1187.330811 2224.808105,1195.314453 2236.114258,1203.169067 
	C2244.787354,1209.194458 2253.083496,1215.762207 2261.908691,1222.608276 
z"/>
<path fill="#9EE1FE" opacity="1.000000" stroke="none" 
	d="
M1274.603516,1109.494141 
	C1273.984009,1085.218384 1273.991211,1060.738037 1273.994385,1036.257690 
	C1273.994995,1031.476440 1274.074829,1026.634155 1266.668335,1026.011963 
	C1281.634766,1015.630554 1296.999023,1004.623840 1313.257935,995.153137 
	C1346.879639,975.568665 1382.411377,960.193481 1421.395386,949.864258 
	C1423.851562,949.388428 1424.927002,948.894714 1426.002441,948.401001 
	C1426.721680,948.164734 1427.440796,947.928467 1429.374268,947.763367 
	C1431.731689,947.331787 1432.874878,946.829041 1434.017944,946.326233 
	C1435.119263,945.967041 1436.220703,945.607788 1438.488159,945.526733 
	C1446.029663,947.502258 1445.935669,952.723206 1445.966797,957.707275 
	C1446.088501,977.179260 1446.107910,996.651978 1446.165527,1016.124390 
	C1437.076538,1019.181824 1427.949463,1022.131226 1418.904907,1025.314819 
	C1371.124512,1042.133423 1328.133667,1067.498413 1288.404785,1098.651123 
	C1283.963135,1102.133911 1279.618408,1105.740356 1274.603516,1109.494141 
z"/>
<path fill="#72D4FE" opacity="1.000000" stroke="none" 
	d="
M1843.194092,1250.193604 
	C1848.715576,1249.860840 1851.128296,1252.666626 1851.684082,1257.172729 
	C1852.048462,1260.127075 1851.985718,1263.143311 1851.988281,1266.131958 
	C1852.009033,1290.738770 1851.885742,1315.346558 1852.122681,1339.951050 
	C1852.158569,1343.681396 1853.827637,1347.395874 1855.337402,1352.338135 
	C1849.758545,1369.482178 1849.782837,1385.648804 1853.417969,1402.389404 
	C1852.089478,1405.508911 1850.784546,1408.221680 1850.791870,1410.931030 
	C1850.806274,1416.213989 1851.865845,1421.490479 1851.938965,1426.777344 
	C1852.123291,1440.106323 1852.250732,1453.445923 1851.919067,1466.769165 
	C1851.663330,1477.038940 1850.676392,1487.290405 1850.014526,1497.550049 
	C1815.287109,1481.060669 1794.338623,1453.122925 1784.288574,1416.782227 
	C1774.471924,1381.285889 1779.252563,1346.976562 1795.178833,1314.062866 
	C1806.899902,1289.839600 1823.264404,1269.032959 1843.194092,1250.193604 
z"/>
<path fill="#CAEEFE" opacity="1.000000" stroke="none" 
	d="
M806.675293,1139.575684 
	C806.008972,1118.862305 805.802185,1098.003906 806.110840,1077.152954 
	C806.214233,1070.170410 804.187744,1065.583740 796.237305,1063.960571 
	C815.261353,1051.481934 836.981750,1043.770142 859.433044,1038.319824 
	C872.205078,1035.219360 885.419495,1033.941162 900.214661,1031.993164 
	C914.056458,1032.301636 926.118225,1032.459229 938.853027,1032.984863 
	C944.375000,1033.557861 949.224060,1033.763062 954.073120,1033.968262 
	C954.073120,1033.968140 955.046509,1033.784546 956.098633,1034.426392 
	C960.124451,1035.367065 963.098022,1035.665894 966.071655,1035.964844 
	C966.401917,1035.916992 966.732239,1035.869263 968.061890,1036.462158 
	C971.332886,1037.413086 973.604553,1037.723633 975.876221,1038.034180 
	C976.237427,1037.999023 976.598694,1037.963867 977.459717,1038.143066 
	C978.631897,1040.886108 979.867432,1043.410156 979.887573,1045.944092 
	C980.043213,1065.494873 979.998291,1085.047852 979.902039,1104.599609 
	C979.892578,1106.530273 979.122253,1108.457153 978.380493,1111.147217 
	C977.657959,1111.914429 977.260010,1111.920410 975.976929,1111.322754 
	C974.161011,1110.488037 973.230408,1110.256958 972.299744,1110.025879 
	C969.271912,1109.343140 966.244141,1108.660400 962.099060,1107.340942 
	C959.973206,1106.533569 958.964600,1106.362915 957.955994,1106.192261 
	C956.361572,1106.058838 954.767212,1105.925415 952.022705,1105.190430 
	C949.875793,1104.469604 948.879028,1104.350586 947.882202,1104.231445 
	C945.596680,1104.106812 943.311218,1103.982178 939.581665,1103.212646 
	C924.934265,1101.590088 911.719177,1100.128662 898.622925,1103.533203 
	C865.293884,1108.125610 835.183167,1120.901733 806.675293,1139.575684 
z"/>
<path fill="#8DDCFF" opacity="1.000000" stroke="none" 
	d="
M1446.969849,1016.162842 
	C1446.107910,996.651978 1446.088501,977.179260 1445.966797,957.707275 
	C1445.935669,952.723206 1446.029663,947.502258 1439.069824,945.534058 
	C1463.867432,938.111572 1489.819458,934.825989 1517.956055,934.013672 
	C1539.257568,934.797791 1558.710327,935.385315 1578.163086,935.972839 
	C1578.163086,935.972839 1579.049683,935.852173 1580.097656,936.423340 
	C1585.222412,937.387756 1589.299194,937.781006 1593.375854,938.174316 
	C1597.032593,938.665588 1600.689453,939.156921 1605.728271,940.320435 
	C1610.066528,941.334656 1613.022827,941.676697 1615.979126,942.018799 
	C1616.318970,941.988464 1616.658813,941.958191 1617.477417,942.106812 
	C1619.303101,946.945984 1621.666870,951.574890 1621.811768,956.272278 
	C1622.299072,972.075806 1622.022583,987.903748 1621.977905,1003.722229 
	C1621.966797,1007.632385 1622.492554,1011.884888 1616.815552,1013.853455 
	C1615.099121,1013.999146 1614.119995,1013.933838 1612.061523,1013.276001 
	C1609.999756,1012.490479 1609.017578,1012.297424 1608.035278,1012.104370 
	C1596.967285,1010.621460 1585.937012,1008.686768 1574.822510,1007.762207 
	C1558.364258,1006.393188 1541.839844,1004.865234 1525.355103,1004.983948 
	C1499.067993,1005.173157 1473.269775,1009.920166 1446.969849,1016.162842 
z"/>
<path fill="#6CD2FE" opacity="1.000000" stroke="none" 
	d="
M1850.608398,1497.976318 
	C1850.676392,1487.290405 1851.663330,1477.038940 1851.919067,1466.769165 
	C1852.250732,1453.445923 1852.123291,1440.106323 1851.938965,1426.777344 
	C1851.865845,1421.490479 1850.806274,1416.213989 1850.791870,1410.931030 
	C1850.784546,1408.221680 1852.089478,1405.508911 1853.885498,1402.900879 
	C1856.518799,1406.305908 1857.974487,1409.655396 1859.631958,1412.901978 
	C1871.327393,1435.811768 1903.673340,1443.569702 1923.315186,1437.834229 
	C1928.918091,1436.198242 1934.217896,1433.523804 1939.656738,1431.325684 
	C1943.283081,1437.126587 1944.181274,1443.440918 1944.091064,1450.231323 
	C1943.858643,1467.697021 1944.080322,1485.168701 1944.182617,1503.613647 
	C1934.209229,1509.227173 1923.464966,1510.050049 1912.640015,1510.544556 
	C1891.158691,1511.525635 1870.579224,1508.028442 1850.608398,1497.976318 
z"/>
<path fill="#60CFFE" opacity="1.000000" stroke="none" 
	d="
M1577.406860,935.640991 
	C1558.710327,935.385315 1539.257568,934.797791 1518.865479,934.106262 
	C1537.564209,931.593689 1557.110474,933.314331 1577.406860,935.640991 
z"/>
<path fill="#8DDCFF" opacity="1.000000" stroke="none" 
	d="
M899.484497,1103.664917 
	C911.719177,1100.128662 924.934265,1101.590088 938.745850,1103.008301 
	C926.351379,1103.564697 913.348755,1103.680664 899.484497,1103.664917 
z"/>
<path fill="#40C5FE" opacity="1.000000" stroke="none" 
	d="
M938.180054,1032.616821 
	C926.118225,1032.459229 914.056458,1032.301636 901.104797,1031.965820 
	C912.891235,1031.612793 925.567444,1031.437988 938.614502,1031.774170 
	C938.985352,1032.285156 938.180054,1032.616821 938.180054,1032.616821 
z"/>
<path fill="#B8E9FE" opacity="1.000000" stroke="none" 
	d="
M938.853027,1032.984863 
	C938.180054,1032.616821 938.985352,1032.285156 939.356323,1032.064331 
	C944.045593,1032.310181 948.363892,1032.776855 953.377686,1033.605957 
	C949.224060,1033.763062 944.375000,1033.557861 938.853027,1032.984863 
z"/>
<path fill="#60CFFE" opacity="1.000000" stroke="none" 
	d="
M1592.786377,937.730347 
	C1589.299194,937.781006 1585.222412,937.387756 1580.525879,936.553589 
	C1584.002930,936.503967 1588.099854,936.895264 1592.786377,937.730347 
z"/>
<path fill="#50CAFE" opacity="1.000000" stroke="none" 
	d="
M2063.180664,1146.087158 
	C2059.717773,1146.794067 2055.425293,1147.375610 2050.253418,1147.887817 
	C2053.699707,1147.199585 2058.025391,1146.580688 2063.180664,1146.087158 
z"/>
<path fill="#B8E9FE" opacity="1.000000" stroke="none" 
	d="
M965.442200,1035.569702 
	C963.098022,1035.665894 960.124451,1035.367065 956.556274,1034.615723 
	C958.912048,1034.500488 961.862427,1034.837524 965.442200,1035.569702 
z"/>
<path fill="#7CD7FE" opacity="1.000000" stroke="none" 
	d="
M1615.353760,941.628296 
	C1613.022827,941.676697 1610.066528,941.334656 1606.526855,940.530762 
	C1608.871704,940.458496 1611.800171,940.848145 1615.353760,941.628296 
z"/>
<path fill="#B8E9FE" opacity="1.000000" stroke="none" 
	d="
M975.304565,1037.646484 
	C973.604553,1037.723633 971.332886,1037.413086 968.518188,1036.667969 
	C970.227661,1036.575195 972.480286,1036.916992 975.304565,1037.646484 
z"/>
<path fill="#B8E9FE" opacity="1.000000" stroke="none" 
	d="
M972.648560,1110.374756 
	C973.230408,1110.256958 974.161011,1110.488037 975.439331,1111.063477 
	C974.857117,1111.179688 973.927246,1110.951660 972.648560,1110.374756 
z"/>
<path fill="#7CD7FE" opacity="1.000000" stroke="none" 
	d="
M1608.417969,1012.448242 
	C1609.017578,1012.297424 1609.999756,1012.490479 1611.375244,1013.005737 
	C1610.779053,1013.149231 1609.789795,1012.970642 1608.417969,1012.448242 
z"/>
<path fill="#8DDCFF" opacity="1.000000" stroke="none" 
	d="
M1425.392822,948.338257 
	C1424.927002,948.894714 1423.851562,949.388428 1422.168213,949.864868 
	C1422.634644,949.323608 1423.708862,948.799622 1425.392822,948.338257 
z"/>
<path fill="#B8E9FE" opacity="1.000000" stroke="none" 
	d="
M958.327393,1106.569336 
	C958.964600,1106.362915 959.973206,1106.533569 961.375366,1107.047852 
	C960.745544,1107.243164 959.722168,1107.094849 958.327393,1106.569336 
z"/>
<path fill="#8DDCFF" opacity="1.000000" stroke="none" 
	d="
M1433.374512,946.256836 
	C1432.874878,946.829041 1431.731689,947.331787 1429.944092,947.808716 
	C1430.443481,947.251038 1431.587280,946.719238 1433.374512,946.256836 
z"/>
<path fill="#B8E9FE" opacity="1.000000" stroke="none" 
	d="
M948.262085,1104.586914 
	C948.879028,1104.350586 949.875793,1104.469604 951.271118,1104.906860 
	C950.660400,1105.130737 949.651123,1105.036499 948.262085,1104.586914 
z"/>
<path fill="#A6E3FE" opacity="1.000000" stroke="none" 
	d="
M1228.691650,1245.135010 
	C1228.431641,1244.847534 1228.214478,1244.194824 1227.975342,1243.183838 
	C1228.213745,1243.473511 1228.473999,1244.121704 1228.691650,1245.135010 
z"/>
<path fill="#E7F7FE" opacity="1.000000" stroke="none" 
	d="
M483.337830,1227.728271 
	C482.974945,1227.957397 482.591888,1227.704712 482.113068,1227.035156 
	C482.500244,1226.682373 482.933716,1226.891724 483.337830,1227.728271 
z"/>
<path fill="#ACE6FF" opacity="1.000000" stroke="none" 
	d="
M1123.390869,1119.750244 
	C1123.071289,1119.931396 1122.729614,1119.689209 1122.276978,1119.098022 
	C1122.628052,1118.775024 1123.029053,1118.967773 1123.390869,1119.750244 
z"/>
<path fill="#ACE6FF" opacity="1.000000" stroke="none" 
	d="
M1125.489990,1121.646851 
	C1125.120117,1121.851074 1124.701660,1121.549194 1124.148804,1120.814453 
	C1124.555542,1120.474365 1125.031128,1120.727417 1125.489990,1121.646851 
z"/>
<path fill="#E7F7FE" opacity="1.000000" stroke="none" 
	d="
M461.442139,1205.661133 
	C460.988068,1205.891846 460.569763,1205.555176 460.106079,1204.702881 
	C460.580231,1204.380127 461.052643,1204.682373 461.442139,1205.661133 
z"/>
<path fill="#6CD2FE" opacity="1.000000" stroke="none" 
	d="
M1799.862061,1027.516968 
	C1799.463379,1027.772583 1798.947266,1027.453491 1798.234009,1026.639282 
	C1798.660767,1026.251221 1799.230103,1026.517212 1799.862061,1027.516968 
z"/>
<path fill="#E7F7FE" opacity="1.000000" stroke="none" 
	d="
M463.254150,1207.720703 
	C462.866760,1207.915771 462.494965,1207.617065 462.056000,1206.882080 
	C462.471588,1206.579834 462.898560,1206.840210 463.254150,1207.720703 
z"/>
<path fill="#E7F7FE" opacity="1.000000" stroke="none" 
	d="
M464.792236,1209.555176 
	C464.767578,1209.832520 464.084717,1209.216309 463.995148,1209.001953 
	C464.340942,1208.706665 464.644714,1208.870117 464.792236,1209.555176 
z"/>
<path fill="#E7F7FE" opacity="1.000000" stroke="none" 
	d="
M481.139771,1225.799561 
	C481.160004,1226.075439 480.386871,1225.585815 480.269226,1225.388672 
	C480.564880,1225.038452 480.887543,1225.149170 481.139771,1225.799561 
z"/>
<path fill="#D9F3FE" opacity="1.000000" stroke="none" 
	d="
M642.207275,1365.577881 
	C641.941467,1365.698730 642.176941,1364.791626 642.308655,1364.598999 
	C642.780151,1364.746094 642.791016,1365.096313 642.207275,1365.577881 
z"/>
<path fill="#E7F7FE" opacity="1.000000" stroke="none" 
	d="
M485.552612,1229.634644 
	C485.134155,1229.915527 484.688538,1229.634399 484.144592,1228.854126 
	C484.591553,1228.441650 485.084625,1228.680908 485.552612,1229.634644 
z"/>
<path fill="#E7F7FE" opacity="1.000000" stroke="none" 
	d="
M487.764557,1231.505615 
	C487.323151,1231.799561 486.841949,1231.496338 486.231049,1230.675537 
	C486.696991,1230.235596 487.238159,1230.485718 487.764557,1231.505615 
z"/>
<path fill="#E7F7FE" opacity="1.000000" stroke="none" 
	d="
M490.044067,1233.378174 
	C489.565430,1233.715942 489.019562,1233.391113 488.318604,1232.483765 
	C488.662933,1232.349121 489.267365,1232.620483 490.044067,1233.378174 
z"/>
<path fill="#2DBFFE" opacity="1.000000" stroke="none" 
	d="
M2441.496338,1256.448242 
	C2441.611328,1256.880249 2441.151367,1257.295654 2440.156738,1257.774170 
	C2439.979736,1257.316406 2440.412842,1256.847778 2441.496338,1256.448242 
z"/>
<path fill="#E7F7FE" opacity="1.000000" stroke="none" 
	d="
M486.305908,1316.478271 
	C486.652710,1316.173584 487.056366,1316.364990 487.586823,1316.975342 
	C487.780334,1317.253906 487.028778,1317.288086 487.028778,1317.288086 
	C487.028778,1317.288086 486.429504,1316.833618 486.305908,1316.478271 
z"/>
<path fill="#D9F3FE" opacity="1.000000" stroke="none" 
	d="
M652.173279,1341.483154 
	C651.918945,1341.574341 652.141052,1340.781128 652.256226,1340.611328 
	C652.720764,1340.738647 652.739502,1341.055420 652.173279,1341.483154 
z"/>
<path fill="#D9F3FE" opacity="1.000000" stroke="none" 
	d="
M646.205078,1355.563477 
	C645.938293,1355.680664 646.186218,1354.777222 646.320862,1354.586792 
	C646.787598,1354.741089 646.793091,1355.091064 646.205078,1355.563477 
z"/>
<path fill="#012C96" opacity="1.000000" stroke="none" 
	d="
M1443.112549,819.015747 
	C1393.210815,785.995544 1367.380371,739.600403 1366.700806,681.052124 
	C1365.708618,595.569885 1425.833374,531.546631 1496.802368,519.070374 
	C1550.999146,509.542633 1597.808594,525.369202 1636.155518,564.403259 
	C1718.232910,647.951233 1686.927124,792.401855 1578.026367,832.675842 
	C1531.431885,849.907593 1486.421143,844.778931 1443.112549,819.015747 
z"/>
<path fill="#012C96" opacity="1.000000" stroke="none" 
	d="
M783.909546,727.760376 
	C852.991943,684.401123 940.244751,726.212219 953.526184,806.829285 
	C962.589172,861.840637 929.612793,916.608337 877.642334,933.851807 
	C818.063965,953.619629 753.798767,919.119568 736.038086,857.691956 
	C721.953613,808.979065 740.122131,756.647888 783.909546,727.760376 
z"/>
<path fill="#012C96" opacity="1.000000" stroke="none" 
	d="
M2141.430908,929.474487 
	C2172.434814,895.575134 2222.621826,890.194031 2259.626465,917.768982 
	C2291.041992,941.178955 2303.223389,983.340942 2289.059814,1019.665833 
	C2274.616211,1056.708862 2237.269287,1079.718384 2197.999023,1075.768433 
	C2159.766602,1071.922852 2127.060303,1042.237305 2120.510254,1004.417664 
	C2115.700928,976.649292 2122.307617,951.559082 2141.430908,929.474487 
z"/>
<path fill="#032D97" opacity="1.000000" stroke="none" 
	d="
M1585.405273,1892.361816 
	C1571.653198,1893.514160 1558.398804,1894.215088 1545.137573,1894.384521 
	C1536.254639,1894.498169 1527.362061,1893.857300 1517.489380,1893.520508 
	C1519.791260,1866.615967 1521.994141,1840.869751 1524.265991,1814.315186 
	C1539.711182,1813.688232 1554.641724,1812.070801 1569.439453,1814.620972 
	C1589.583374,1818.092407 1599.290527,1831.667114 1597.457520,1852.710083 
	C1596.259155,1866.466309 1592.329102,1879.456909 1585.405273,1892.361816 
z"/>
<path fill="#032D97" opacity="1.000000" stroke="none" 
	d="
M878.052856,1810.344727 
	C883.622742,1810.602173 888.324646,1810.485840 892.903259,1811.181396 
	C916.988586,1814.840454 929.882263,1827.958130 934.045837,1852.016113 
	C937.100342,1869.665771 935.686829,1887.246826 933.654541,1904.769775 
	C931.275330,1925.284058 926.954224,1945.426270 919.605774,1965.107178 
	C900.708252,1970.742554 881.435608,1971.901123 862.216858,1969.489868 
	C840.168335,1966.723389 826.960144,1951.271851 823.938477,1927.225830 
	C821.167480,1905.174438 823.283997,1883.297974 827.071472,1861.628662 
	C829.412354,1848.235596 833.390442,1835.130371 836.579834,1821.883057 
	C837.718506,1817.153809 840.371460,1814.495117 845.429382,1813.988892 
	C856.011230,1812.930054 866.563599,1811.577637 878.052856,1810.344727 
z"/>
<path fill="#063199" opacity="1.000000" stroke="none" 
	d="
M1213.242798,1835.156616 
	C1215.441406,1826.642944 1217.371826,1818.915283 1219.370361,1811.205200 
	C1219.521240,1810.623779 1220.158813,1810.168457 1220.641357,1809.565430 
	C1226.118042,1809.565430 1231.647583,1809.565430 1236.618286,1809.565430 
	C1240.414551,1848.779663 1244.150513,1887.372681 1247.940430,1926.521729 
	C1227.909546,1926.521729 1208.168701,1926.521729 1187.848755,1926.521729 
	C1196.354126,1895.881958 1204.672729,1865.914429 1213.242798,1835.156616 
z"/>
<path fill="#012C97" opacity="1.000000" stroke="none" 
	d="
M1226.146973,1393.248169 
	C1231.444092,1409.630737 1235.216797,1425.628296 1235.741333,1442.066528 
	C1237.083008,1484.118896 1211.433960,1515.056396 1169.847778,1522.347290 
	C1168.870850,1522.518555 1167.911743,1522.791016 1166.276978,1523.399658 
	C1151.153809,1524.037231 1137.095337,1522.330688 1123.697510,1516.339844 
	C1091.712646,1502.037598 1073.594849,1472.249634 1075.310303,1437.255859 
	C1076.420166,1414.617676 1082.851807,1393.334595 1091.051025,1372.529663 
	C1105.359375,1336.223267 1122.655762,1301.329956 1142.187988,1266.772461 
	C1144.657715,1262.984619 1146.977905,1259.891602 1149.916016,1255.974609 
	C1181.162720,1298.735596 1208.954224,1342.581909 1226.146973,1393.248169 
z"/>
<path fill="#063199" opacity="1.000000" stroke="none" 
	d="
M2412.143555,2235.673340 
	C2412.143555,2220.784180 2412.143555,2206.854004 2412.143555,2191.604980 
	C2429.079346,2191.986816 2445.323242,2190.105225 2461.376465,2192.905029 
	C2476.438721,2195.531982 2483.605469,2204.677979 2483.678467,2219.150146 
	C2483.751221,2233.569092 2475.768555,2243.810791 2460.465820,2245.720215 
	C2445.035156,2247.645264 2429.355957,2247.577637 2412.621826,2248.443115 
	C2412.427490,2243.645752 2412.285645,2240.138916 2412.143555,2235.673340 
z"/>
<path fill="#012C97" opacity="1.000000" stroke="none" 
	d="
M849.973938,2216.302002 
	C862.146790,2247.081787 862.667114,2277.673096 851.688049,2307.769775 
	C838.438660,2344.090088 805.616821,2349.781494 780.549500,2342.122070 
	C764.873779,2337.332031 754.673950,2326.343262 747.925476,2311.812500 
	C741.930298,2298.903564 739.752014,2285.153076 739.221802,2271.080566 
	C738.564880,2253.643799 739.829590,2236.410156 746.430908,2220.041504 
	C760.604370,2184.896729 791.525574,2179.292236 816.342346,2186.103271 
	C832.140747,2190.438965 842.606750,2201.203125 849.973938,2216.302002 
z"/>
<path fill="#012C97" opacity="1.000000" stroke="none" 
	d="
M1939.622803,1430.636475 
	C1934.217896,1433.523804 1928.918091,1436.198242 1923.315186,1437.834229 
	C1903.673340,1443.569702 1871.327393,1435.811768 1859.631958,1412.901978 
	C1857.974487,1409.655396 1856.518799,1406.305908 1854.502197,1402.492676 
	C1849.782837,1385.648804 1849.758545,1369.482178 1855.986572,1352.781494 
	C1869.187744,1323.683228 1890.474365,1302.140137 1913.965332,1282.428345 
	C1918.070679,1278.983398 1920.349487,1279.231567 1922.709106,1284.524658 
	C1927.523682,1295.324951 1931.877563,1306.330444 1936.963867,1317.714111 
	C1941.931641,1332.039917 1946.908569,1345.758179 1950.597046,1359.814453 
	C1953.270386,1370.001831 1954.834473,1380.581543 1955.816162,1391.086914 
	C1957.123413,1405.076904 1952.281982,1417.142212 1941.887573,1426.830688 
	C1940.959351,1427.695801 1940.347656,1428.900513 1939.622803,1430.636475 
z"/>
</svg>